<?xml version="1.0" encoding="UTF-8" standalone="no"?>
<svg
   xmlns="http://www.w3.org/2000/svg"
   viewBox="0 0 489 102"
   height="100"
   width="500" >
  <g
     transform="matrix(0.3,0,0,0.3,0,0)">
    <path
       style="fill:#d7010b;stroke:#d7010b;stroke-width:2;stroke-opacity:1;"
       d="m 725.52892,306.49479 -6.06887,-4.4413 c 5.75019,-83.35706 3.48043,-90.34762 3.48043,-90.34762 l -70.4,-87.58127 5.35255,-12.45491 c 17.75978,-11.823031 31.09139,-22.950763 46.11999,-34.374517 21.98401,29.077237 64.00179,93.680757 64.00179,93.680757 l 61.76399,-94.015962 20.10608,28.393602 -66.17368,95.9416 c 0,0 -2.95389,0.4481 8.14809,104.93235 -34.01005,-0.62408 -36.04516,-0.7589 -66.33037,0.26727 z M 761.34173,138.2379 c -5.70269,-0.79996 -10.40298,-3.2234 -15.51971,-8.00186 -4.39053,-4.10029 -9.45124,-11.49022 -11.83082,-17.27604 -7.75683,-18.860467 -8.61018,-40.090194 -2.4232,-60.287038 4.02749,-13.147443 12.61238,-24.603198 21.93709,-29.272994 3.70598,-1.855943 7.16701,-2.679251 11.29491,-2.686832 14.93488,-0.02743 27.16262,11.930133 34.03299,33.281029 0,0 3.79411,15.987759 3.81578,25.365833 0.024,10.340134 -1.31136,18.502134 -4.58176,28.006792 -5.73789,16.67584 -16.01235,28.08925 -27.47488,30.5205 -2.43463,0.51639 -6.87015,0.68451 -9.2504,0.35061 z" />
    <path
       style="fill:#000000;fill-opacity:1;stroke:#000000;stroke-width:2;stroke-opacity:0.5;"
       d="m 389.92,310.52205 c -0.528,-0.0747 -3.00451,-0.4221 -5.50336,-0.77207 -14.13296,-1.97935 -28.26941,-7.93752 -38.49664,-16.22539 -2.85779,-2.31588 -8.19814,-7.68064 -10.75546,-10.8046 -6.33142,-7.73436 -11.79577,-18.60201 -14.98115,-29.79502 -2.65773,-9.33896 -3.71482,-17.19627 -3.93548,-29.25233 -0.24861,-13.58348 0.7293,-23.68307 3.25449,-33.61155 3.14694,-12.37299 8.95923,-24.10524 16.24019,-32.78109 3.16698,-3.77371 9.39869,-9.83811 12.41741,-12.08402 9.73654,-7.2439 21.06483,-11.86199 35.04,-14.28437 6.01603,-1.04279 9.69885,-1.32441 17.28,-1.32137 16.10336,0.006 29.35232,2.98991 42.12922,9.48685 7.09574,3.60812 12.36297,7.44155 17.93088,13.04987 3.93158,3.96014 5.96604,6.44083 8.95065,10.91388 8.13597,12.19349 12.98807,26.90985 15.03437,45.59915 0.5832,5.32647 0.49462,18.90629 -0.1624,24.89756 -2.53309,23.09902 -9.9801,40.57484 -23.03629,54.0591 -6.05581,6.25436 -12.01398,10.59554 -19.88643,14.48942 -5.504,2.7224 -9.39856,4.14952 -15.84,5.80442 -8.66634,2.2265 -11.80813,2.57711 -24,2.67833 -5.896,0.0489 -11.152,0.0279 -11.68,-0.0468 z m 19.74586,-34.13709 c 10.17356,-2.68903 17.55865,-9.11888 22.83344,-19.88002 4.65763,-9.50205 6.7759,-19.49759 7.09507,-33.47981 0.41878,-18.34472 -3.14592,-33.9253 -10.20983,-44.62514 -2.18793,-3.31412 -6.39152,-7.67011 -9.4262,-9.76799 -7.8394,-5.41936 -19.35389,-7.16652 -29.57924,-4.48825 -12.47916,3.26861 -21.96688,14.70279 -26.16774,31.53624 -2.01536,8.07587 -2.85597,13.97991 -3.14374,22.08 -0.36855,10.37409 1.24771,22.41006 4.25417,31.68 2.61687,8.0687 8.17811,16.45877 14.03821,21.17893 6.29165,5.06777 12.25101,6.88741 21.92,6.69308 4.4207,-0.0889 5.78547,-0.23972 8.38586,-0.92704 z M 1168.8,310.23328 c -15.8228,-1.85147 -29.2691,-6.92082 -40.3219,-15.20166 -6.7519,-5.05854 -12.9864,-11.99772 -17.8481,-19.86547 -7.6355,-12.35638 -12.0513,-26.90246 -13.6765,-45.05116 -1.4387,-16.0658 1.0756,-35.59392 6.4522,-50.115 4.1102,-11.1005 9.6047,-19.69437 18.0331,-28.20492 5.0068,-5.05564 8.752,-7.96113 14.5268,-11.26957 8.4245,-4.82649 16.9926,-7.73444 28.9944,-9.84051 6.4097,-1.12476 19.4144,-1.43193 26.88,-0.6349 29.6241,3.16266 51.3357,17.52411 63.4949,41.99947 7.4139,14.92362 10.3066,30.28365 9.844,52.27043 -0.28,13.30585 -1.6332,22.27912 -4.8776,32.34492 -9.9418,30.84473 -33.9957,49.98386 -67.3413,53.58207 -5.3368,0.57588 -19.1886,0.56803 -24.16,-0.0137 z m 19.7897,-33.45247 c 6.1699,-1.25131 11.453,-3.9263 15.6232,-7.91046 11.0008,-10.51008 16.9263,-29.20305 16.151,-50.95036 -0.3641,-10.21092 -1.2204,-16.599 -3.1101,-23.2 -5.0163,-17.52313 -14.5853,-28.06091 -28.1295,-30.97759 -4.4106,-0.94977 -12.0086,-0.92463 -16.6443,0.0551 -14.3495,3.03264 -25.3268,17.2539 -28.9324,37.48249 -1.176,6.59829 -1.6444,24.30637 -0.8505,32.16 1.4549,14.39255 5.8944,25.37862 13.6018,33.65917 5.0245,5.39817 10.7718,8.58097 17.7863,9.84985 3.8153,0.69019 10.6636,0.61078 14.5045,-0.1682 z M 76.16,310.18338 c -17.522726,-0.97795 -33.775542,-4.50198 -50.865886,-11.02906 -2.723948,-1.04031 -5.281466,-2.10694 -5.683373,-2.37028 L 18.88,296.30524 v -20.28596 c 0,-15.9426 0.08564,-20.31519 0.4,-20.42252 0.746433,-0.25483 4.072912,0.71162 6.286816,1.82652 1.212493,0.6106 4.847979,2.85663 8.078858,4.99118 11.342918,7.49392 21.940272,11.85218 34.674326,14.26011 4.528947,0.8564 5.296931,0.90815 13.6,0.91654 7.905421,0.008 9.164298,-0.065 12.383603,-0.71765 4.268199,-0.86531 8.309597,-2.48984 11.496057,-4.62107 4.64314,-3.10552 6.8746,-6.71853 7.10326,-11.50103 0.22693,-4.74649 -1.34071,-8.00692 -5.56944,-11.58349 C 102.92622,245.44031 98.817254,243.98496 81.44,239.99669 68.254205,236.97041 64.592797,236.038 59.872723,234.50442 47.538125,230.49681 37.205613,224.42948 31.41499,217.79382 20.143929,204.87794 16.933881,183.30326 23.680315,165.80917 c 2.330348,-6.04279 7.821613,-13.19972 14.239685,-18.559 11.437939,-9.55102 25.521616,-15.05081 44.006035,-17.18472 3.689223,-0.4259 6.460672,-0.50183 13.593965,-0.37246 12.75375,0.23131 20.96828,1.36116 34.24,4.70948 7.49658,1.89131 17.97529,5.04474 20,6.01874 l 1.12,0.53879 0.0824,20.24912 c 0.0697,17.13813 0.0134,20.2756 -0.36665,20.42144 -0.56561,0.21704 -3.07467,-1.04671 -8.72124,-4.3927 -12.47415,-7.3918 -15.68225,-9.04985 -21.28074,-10.99855 -7.7869,-2.71045 -15.9067,-4.28043 -23.497446,-4.54331 -8.668039,-0.30017 -14.671319,0.75967 -20.616314,3.63969 -4.080784,1.97691 -7.420621,5.22431 -9.19496,8.94047 -1.167395,2.44499 -1.20504,2.6338 -1.20504,6.04383 0,2.99674 0.109469,3.75785 0.73639,5.12 0.953466,2.07165 2.239965,3.40516 5.116871,5.30383 3.97911,2.62609 8.095126,3.98618 20.723744,6.84792 27.029205,6.12501 37.538485,9.93213 47.896535,17.35113 3.24935,2.32737 7.66066,6.65324 9.56233,9.37712 7.44096,10.6582 9.95929,25.05283 6.96998,39.84 -2.11585,10.46641 -8.253,20.7642 -16.70351,28.02754 -12.78711,10.99072 -30.53524,16.83467 -54.30234,17.8802 -4.136,0.18194 -7.664,0.30449 -7.84,0.27234 -0.176,-0.0322 -1.112,-0.10267 -2.08,-0.15669 z m 138.32,-2.87532 c -0.31826,-0.12842 -0.401,-14.42716 -0.4049,-69.97473 -0.003,-38.39734 -0.11866,-69.99246 -0.25769,-70.21139 -0.19737,-0.31082 -5.82484,-0.41602 -25.6751,-0.48 L 162.72,166.56 v -16.8 -16.8 h 72.96 72.96 v 16.8 16.8 l -25.6,0.16 -25.6,0.16 -0.079,69.91999 c -0.0738,65.28797 -0.11494,69.9465 -0.62116,70.32 -0.42138,0.3109 -5.14387,0.39437 -21.20098,0.37474 -11.36236,-0.0139 -20.83884,-0.0979 -21.05884,-0.18667 z m 296.63942,-0.0522 c -0.31948,-0.20286 -0.38428,-17.86954 -0.32,-87.2751 l 0.0806,-87.02076 37.6,0.0762 c 43.98051,0.0892 49.17286,0.31001 59.2,2.51783 10.9256,2.40565 18.91206,6.58067 25.94858,13.56491 5.99756,5.95302 9.07628,11.23636 11.00233,18.88103 1.12554,4.46721 1.44983,7.43926 1.44285,13.22315 -0.0122,10.14725 -1.96909,19.5792 -5.52845,26.64715 -2.88214,5.72317 -9.68121,13.84598 -14.22816,16.99826 -1.01043,0.70052 -3.36665,2.33966 -5.23606,3.64255 -1.86941,1.30288 -4.28141,2.90937 -5.36,3.56997 -1.07859,0.6606 -1.96048,1.3086 -1.95975,1.44 0,0.1314 5.56266,7.22291 12.35981,15.75891 25.52154,32.05042 45.21706,57.15984 45.23213,57.6655 0.0157,0.52961 -3.3641,0.59209 -27.3513,0.50562 l -25.27798,-0.0911 -4.73709,-6.08 c -2.60537,-3.344 -13.38646,-17.528 -23.95792,-31.52 -10.57149,-13.992 -19.51187,-25.69461 -19.86752,-26.00579 -0.58496,-0.51178 -1.35286,-0.5576 -8.04406,-0.48 l -7.39741,0.0858 -0.0797,31.68 c -0.0738,29.33313 -0.11977,31.70963 -0.62115,32.08 -0.42042,0.31055 -5.23312,0.39891 -21.52035,0.3951 -11.53837,-0.003 -21.15911,-0.11935 -21.37943,-0.25924 z m 67.3113,-96.08191 c 9.49859,-1.0988 15.81414,-5.10271 19.61629,-12.43627 4.8503,-9.35527 3.81574,-20.63414 -2.49335,-27.18272 -2.79788,-2.90411 -6.76611,-4.59499 -13.69862,-5.83703 -3.19126,-0.57175 -5.46752,-0.701 -14.71939,-0.83576 -6.01936,-0.0877 -11.31232,-0.067 -11.76208,0.0458 l -0.81776,0.20524 0.0821,23.11338 0.0821,23.11337 6.08,0.18344 c 6.96339,0.2101 13.87206,0.0653 17.63072,-0.36949 z m 415.84701,95.91149 c -0.42224,-0.50873 -4.64256,-16.23772 -14.4369,-53.80544 -8.27056,-31.72312 -13.06352,-49.69148 -13.43616,-50.37116 -0.41917,-0.76451 -0.74608,0.24022 -3.68669,11.33116 -1.5399,5.808 -2.97708,10.92 -3.19372,11.36 -0.44032,0.89419 -7.78327,29.85121 -15.45831,60.96 l -5.05273,20.48 -23.96855,0.0821 c -13.27773,0.0455 -24.09264,-0.042 -24.24675,-0.19614 -0.15302,-0.15301 -2.70134,-10.05393 -5.66301,-22.00206 -7.86819,-31.74262 -15.97757,-63.98329 -24.98259,-99.32386 -11.4144,-44.79625 -13.17174,-51.91109 -12.88662,-52.17283 0.30953,-0.28416 44.06409,-0.6226 44.51369,-0.34432 0.74183,0.45916 14.21136,64.97782 21.53706,103.16178 1.95302,10.1798 2.26848,11.47712 2.68864,11.05695 0.10995,-0.10994 1.40864,-4.71377 2.88601,-10.23074 1.47735,-5.51696 2.84535,-10.53484 3.04,-11.15084 0.60608,-1.91815 3.41021,-12.82642 6.08727,-23.68 5.23385,-21.21944 14.14147,-56.67756 15.75619,-62.71999 l 1.66755,-6.24 21.27895,-0.17729 c 11.70342,-0.0975 21.44336,-0.12408 21.64435,-0.0591 0.20096,0.065 0.68374,1.51282 1.07286,3.21729 0.38912,1.70448 3.65271,15.41105 7.25242,30.45905 10.29551,43.03853 15.42301,64.95042 18.41601,78.69915 0.2465,1.13255 0.6059,2.1117 0.7985,2.1759 0.2063,0.0688 0.6206,-1.04009 1.0085,-2.69917 0.3621,-1.54874 1.45,-6.12789 2.4175,-10.17589 4.6617,-19.50443 14.8855,-66.76182 20.6651,-95.51999 0.5482,-2.728 1.1303,-5.284 1.2934,-5.68 l 0.2966,-0.72 h 21.7479 c 13.1294,0 21.8212,0.11844 21.9327,0.29888 0.2739,0.44306 -18.6099,75.76534 -38.1119,152.01775 -3.0829,12.05415 -5.7699,22.01842 -5.9712,22.14283 -0.2013,0.1244 -10.7596,0.22998 -23.463,0.23461 -18.59926,0.007 -23.16435,-0.0728 -23.44307,-0.40864 z m 297.96167,0.17042 c -0.3195,-0.20286 -0.3843,-17.86954 -0.32,-87.2751 l 0.081,-87.02076 34.4,-0.0976 c 41.6547,-0.11814 49.4167,0.16781 59.84,2.20445 12.6857,2.4787 19.9672,6.14921 27.851,14.0392 7.4616,7.46754 10.6568,13.84936 11.9912,23.9503 1.158,8.76466 -0.04,21.61737 -2.7519,29.53759 -1.9235,5.61645 -5.8781,11.89857 -10.5276,16.72358 -3.8672,4.01319 -6.8963,6.45776 -13.222,10.6707 -3.2083,2.13672 -5.0008,3.52214 -4.8992,3.7867 0.2014,0.52502 8.8961,11.6057 28.3618,36.14503 31.7832,40.06737 29.362,36.9287 28.7742,37.30068 -0.5346,0.3383 -31.6081,0.39918 -44.4401,0.0871 l -8.7265,-0.21226 -6.2632,-8.34774 c -3.4448,-4.59126 -11.1863,-14.82775 -17.2033,-22.74775 -6.017,-7.92 -13.6208,-18.072 -16.8972,-22.56 -3.2764,-4.488 -6.2834,-8.53334 -6.6822,-8.98965 l -0.725,-0.82965 -7.1484,-0.18939 c -3.9317,-0.10416 -7.3517,-0.11141 -7.6,-0.0161 -0.3846,0.14754 -0.4516,4.84553 -0.4516,31.63618 0,28.17597 -0.053,31.51544 -0.5028,31.96576 -0.4471,0.44704 -2.836,0.50231 -21.52,0.49796 -11.5595,-0.003 -21.1975,-0.11936 -21.4178,-0.25925 z m 64.8806,-96.07559 c 5.5815,-0.51196 9.3208,-1.38452 11.901,-2.77712 6.5526,-3.53669 10.9532,-10.29035 12.1276,-18.61258 0.7318,-5.18657 -0.078,-10.16703 -2.3713,-14.59057 -2.2062,-4.25474 -4.7623,-6.26909 -10.3165,-8.12991 -5.5762,-1.86819 -7.6867,-2.07938 -20.9408,-2.09549 l -12,-0.0146 -0.083,22.87999 c -0.046,12.584 -0.014,23.06 0.07,23.28 0.1959,0.51303 16.1904,0.55764 21.6128,0.0603 z m 108.8794,96.07559 c -0.3195,-0.20286 -0.3843,-17.86954 -0.32,-87.2751 l 0.081,-87.02076 h 21.6 21.6 l 0.16,37.65339 c 0.088,20.70936 0.2362,37.72953 0.3293,37.8226 0.093,0.0931 0.3188,0.069 0.5015,-0.0534 0.4161,-0.27881 7.4149,-9.90033 17.9548,-24.68333 20.8816,-29.28792 34.5452,-48.20225 36.175,-50.07675 l 0.7186,-0.82647 24.6938,0.082 c 16.1076,0.0535 24.7296,0.19324 24.797,0.40198 0.1126,0.34901 -3.8765,5.63237 -30.4427,40.31999 -24.5088,32.0011 -30.5673,40.04382 -30.5673,40.57809 0,0.25424 2.9715,4.69218 6.6034,9.86209 8.286,11.79502 23.3204,33.44742 34.523,49.71982 10.6379,15.45201 21.4975,31.1069 22.2851,32.12524 1.2974,1.67765 1.9666,1.63476 -25.5098,1.63476 -14.6685,0 -25.7067,-0.12421 -26.1541,-0.29431 -0.5419,-0.20602 -5.5787,-7.47709 -16.7916,-24.24 -21.8301,-32.63542 -30.6539,-45.38569 -31.409,-45.38569 -0.2333,0 -2.0268,2.35089 -3.9856,5.2242 l -3.5614,5.22419 -0.085,29.47998 c -0.066,22.96222 -0.1722,29.53546 -0.48,29.73091 -0.5197,0.3301 -42.1955,0.32677 -42.7156,-0.003 z" />
  </g>
</svg>
