<?xml version="1.0" encoding="UTF-8" standalone="no"?>
<svg
   xmlns="http://www.w3.org/2000/svg"
   viewBox="0 0 420 40"
   height="40"
   width="420" >
  <g
     aria-label="Menschen bewegen mit Geschichten"
     style="font-style:normal;font-variant:normal;font-weight:normal;font-stretch:normal;font-size:52.80592346px;line-height:1.25;font-family:Delphin;-inkscape-font-specification:Delphin;letter-spacing:0px;word-spacing:0px;fill:#000000;fill-opacity:1;stroke:none;stroke-width:1.32014823" >
    <path
       d="m 28.655903,30.688086 q -0.997303,-0.09589 -2.128858,-0.153432 -1.131556,-0.05754 -2.224754,-0.05754 -1.879533,0 -3.989213,0.210968 v -1.189093 h 1.380882 q 0.51783,0 0.824693,-0.07672 0.326041,-0.07672 0.537009,-0.306863 0.421936,-0.479473 0.421936,-1.361702 0,-0.230147 -0.01918,-0.345221 L 21.751497,14.079151 15.729319,30.688086 H 14.885448 L 7.2522423,13.964078 6.4275492,27.082451 q 0,0.690441 0.038358,1.093198 0.057537,0.383578 0.2685047,0.767156 0.1342524,0.249326 0.421936,0.441115 0.2876836,0.17261 0.632904,0.17261 h 1.3617024 v 1.131556 q -0.8438719,-0.09589 -1.5151337,-0.153432 -0.6520829,-0.05754 -1.457597,-0.05754 -1.668565,0 -2.28229,0.03836 -0.613725,0.01918 -1.9370697,0.172611 v -1.189093 h 1.3808814 q 0.402757,0 0.5178305,-0.01918 0.4602938,-0.07672 0.6712618,-0.402757 0.2109679,-0.34522 0.3452203,-0.863051 Q 5.027489,27.676997 5.027489,27.139988 L 6.0247922,13.983257 q 0.019179,-0.17261 0.038358,-0.402757 0.038358,-0.249326 0.038358,-0.306863 0,-0.326041 -0.1726102,-0.460293 Q 5.7562875,12.659912 5.5836773,12.621554 5.430246,12.564018 5.1233835,12.564018 H 3.8575756 v -1.208271 q 0.6712618,0.17261 1.1699134,0.249325 0.4986516,0.05754 1.1315555,0.05754 0.7671563,0 1.3233447,-0.01918 0.5753672,-0.03836 1.5343126,-0.268505 0.191789,0.747978 0.402757,1.495955 0.210968,0.728799 0.5178305,1.476776 1.0164817,2.397364 2.3973637,5.561883 0.978124,2.224754 2.243932,5.024874 0.978124,2.167217 1.035661,2.263111 0.134252,-0.287683 1.05484,-2.704226 0.939766,-2.416542 1.802817,-4.756369 1.208271,-3.279593 1.745281,-4.775548 0.326041,-0.978124 0.613725,-2.205574 0.191789,-0.88223 0.306862,-1.40006 0.767157,0.17261 1.342524,0.249325 0.575367,0.05754 1.304166,0.05754 0.843872,0 1.457597,-0.05754 0.613725,-0.05754 1.438418,-0.230147 v 1.246629 h -1.380882 q -0.287683,0 -0.575367,0 -0.268504,0.03836 -0.460294,0.210968 -0.191789,0.172611 -0.268504,0.383579 -0.07672,0.191789 -0.07672,0.402757 0,0.230147 0.01918,0.364399 l 1.611028,12.677258 q 0.153432,1.131555 0.287684,1.57267 0.134252,0.421936 0.364399,0.70962 0.17261,0.210968 0.498652,0.421936 0.34522,0.191789 0.709619,0.191789 h 1.246629 z"
       style="font-size:31.6835556px;stroke-width:0.2;fill:#000000;fill-opacity:1;stroke:#000000;stroke-opacity:1;stroke-miterlimit:4;stroke-dasharray:none;stroke-linejoin:round;stroke-linecap:round"/>
    <path
       d="m 40.245957,25.375528 q 0,0.671262 -0.306863,1.649386 -0.498651,1.572671 -1.534313,2.569974 -1.438418,1.361702 -3.663171,1.361702 -2.320648,0 -3.50974,-1.860354 -1.05484,-1.649386 -1.05484,-4.449506 0,-3.816603 1.208271,-6.348219 1.495955,-3.126162 4.430328,-3.126162 1.898712,0 2.819299,1.246629 0.786336,1.074019 0.786336,2.876836 0,1.246629 -0.383579,2.589153 -1.016482,0.34522 -1.706922,0.537009 -0.690441,0.191789 -1.649386,0.402757 -0.958946,0.191789 -1.668565,0.306863 -0.70962,0.09589 -1.553492,0.17261 -0.05754,0.05754 -0.05754,1.035661 0,1.917891 0.556189,3.183699 0.824693,1.879533 2.723405,1.879533 1.476775,0 2.531615,-1.150735 1.05484,-1.150734 1.05484,-2.665868 0,-0.230147 -0.01918,-0.34522 z m -2.8193,-6.981122 q -0.153431,-1.342524 -0.287683,-1.630207 -0.345221,-0.786336 -1.380882,-0.786336 -1.57267,0 -2.531616,2.608332 -0.728798,1.956248 -0.728798,3.471382 0,0.0959 0,0.191789 0.01918,0.01918 0.03836,0.03836 l 2.819299,-0.460294 q 0.997303,-0.17261 1.553492,-0.997303 0.556188,-0.843872 0.556188,-1.975428 0,-0.115073 0,-0.230146 -0.03836,-0.153432 -0.03836,-0.230147 z"
       style="font-size:31.6835556px;stroke-width:0.2;fill:#000000;fill-opacity:1;stroke:#000000;stroke-opacity:1;stroke-miterlimit:4;stroke-dasharray:none;stroke-linejoin:round;stroke-linecap:round"/>
    <path
       d="m 56.286564,29.748319 q -0.709619,0 -1.208271,0.0959 -0.479472,0.09589 -1.438418,0.402757 -0.958945,0.287683 -1.994606,0.920587 l -0.460294,-0.402757 q 0.364399,-1.687744 0.383578,-1.74528 0.115074,-0.613725 0.210968,-1.227451 0.249326,-1.649386 0.383578,-3.835781 0.134253,-2.205574 0.17261,-3.720708 0.03836,-1.515134 0.05754,-2.378185 -0.09589,0.09589 -0.901408,1.035661 -0.863051,1.016482 -1.802818,2.224754 -1.169913,1.495954 -1.802817,2.4549 -1.05484,1.591849 -1.687744,3.356309 -0.421936,1.169913 -0.690441,2.608331 -0.09589,0.575367 -0.17261,1.150735 h -1.93707 l 0.728799,-13.367699 -2.474079,0.537009 v -1.208271 q 0.805514,0 1.22745,-0.03836 0.421936,-0.05754 1.112377,-0.230147 1.476775,-0.364399 2.819299,-1.265808 l -1.074019,10.068927 q 0.690441,-1.284987 1.706923,-2.857657 1.035661,-1.59185 1.783638,-2.512437 0.88223,-1.074019 1.783639,-2.167217 0.920587,-1.093197 1.975427,-2.128858 h 1.745281 l -0.728799,13.425235 2.28229,-0.34522 z"
       style="font-size:31.6835556px;stroke-width:0.2;fill:#000000;fill-opacity:1;stroke:#000000;stroke-opacity:1;stroke-miterlimit:4;stroke-dasharray:none;stroke-linejoin:round;stroke-linecap:round"/>
    <path
       d="m 66.385158,26.008432 q 0,1.649386 -1.265808,3.145341 -1.495954,1.764459 -3.720708,1.764459 -1.457597,0 -2.857657,-0.556188 -0.460294,-0.17261 -1.093198,-0.556188 l 0.421936,-4.756369 0.958946,0.115073 -0.153432,1.802817 q 0,1.380882 0.805514,2.224754 0.805515,0.843872 2.032965,0.843872 1.246629,0 2.090501,-0.728799 0.86305,-0.747977 0.86305,-2.032964 0,-0.978124 -0.537009,-1.706923 -0.402757,-0.556188 -1.380881,-1.246629 l -1.687744,-1.22745 Q 59.921866,22.402797 59.442394,21.501389 58.9821,20.580801 58.9821,19.487603 q 0,-1.879533 1.016482,-3.030267 1.112377,-1.265808 3.16452,-1.265808 0.03836,-0.01918 0.134252,-0.01918 0.556188,0 1.169913,0.153431 0.326042,0.07672 0.652083,0.210968 v 3.33713 h -0.882229 l -0.03836,-0.843872 q 0,-0.786335 -0.383578,-1.380881 -0.383579,-0.613725 -1.074019,-0.613725 -0.767157,0 -1.323345,0.747977 -0.556188,0.728799 -0.556188,1.476776 0,0.920588 0.51783,1.726102 0.517831,0.805514 1.476776,1.495955 l 1.419239,0.997303 q 1.035661,0.70962 1.534313,1.495955 0.575367,0.901409 0.575367,2.032964 z"
       style="font-size:31.6835556px;stroke-width:0.2;fill:#000000;fill-opacity:1;stroke:#000000;stroke-opacity:1;stroke-miterlimit:4;stroke-dasharray:none;stroke-linejoin:round;stroke-linecap:round"/>
    <path
       d="m 77.740268,25.433065 q 0.191789,1.726102 -1.553492,3.759066 -1.476776,1.706923 -3.835782,1.706923 -2.339826,0 -3.471382,-1.706923 -0.939766,-1.419239 -0.939766,-3.739887 0,-3.912497 1.457597,-6.770155 1.783638,-3.490561 5.005695,-3.490561 0.824693,0 1.40006,0.17261 0.594546,0.153432 1.40006,0.556189 v 3.816602 h -1.93707 q 0,-0.05754 0.01918,-0.421936 0.03836,-0.383578 0.03836,-0.51783 0,-1.342524 -0.479473,-1.975428 -0.402757,-0.537009 -1.150734,-0.537009 -1.630207,0 -2.531616,2.589152 -0.747977,2.167217 -0.747977,5.082411 0,2.819299 0.805514,4.085107 0.690441,1.093198 1.956249,1.093198 1.553491,0 2.550794,-1.131556 1.169914,-1.323344 1.169914,-2.569973 z"
       style="font-size:31.6835556px;stroke-width:0.2;fill:#000000;fill-opacity:1;stroke:#000000;stroke-opacity:1;stroke-miterlimit:4;stroke-dasharray:none;stroke-linejoin:round;stroke-linecap:round"/>
    <path
       d="m 91.054931,20.005434 q 0,1.591849 -0.345221,2.915194 -0.230147,0.88223 -0.997303,2.80012 -0.632904,1.534313 -1.956249,3.33713 -1.016482,1.361703 -2.301469,2.761763 -0.728798,0.747978 -1.457597,1.495955 l -2.205574,2.339827 -0.88223,-1.074019 q 1.917891,-1.342524 3.087804,-2.685047 1.189093,-1.323345 2.282291,-3.433025 0.997303,-1.917891 1.591849,-4.315254 0.613725,-2.416542 0.613725,-4.257718 0,-1.57267 -0.460294,-2.301468 -0.07672,-0.134253 -0.249326,-0.134253 -0.671261,0 -2.205574,1.93707 -1.591849,2.032964 -2.857657,4.526222 -1.457597,2.896015 -1.802818,5.159126 l -0.191789,1.342524 -1.879533,0.613725 0.268505,-3.106983 q 0,-1.572671 0.09589,-3.126162 0.115073,-1.553492 0.230146,-3.260414 0.134253,-1.706923 0.134253,-3.011089 0,-3.049446 0.402757,-5.772851 0.326041,-2.186396 1.016482,-4.9481584 0.690441,-2.7617627 1.40006,-5.5235254 L 82.731285,0.88406291 H 86.14513 V 1.8238294 q -0.747977,0.6712618 -1.476776,1.3425235 -0.863051,1.4767759 -1.40006,4.2001808 -0.537009,2.7042263 -0.767156,4.0083913 -0.402757,2.224754 -0.556189,3.797424 -0.153431,1.553492 -0.153431,3.835782 l -0.34522,5.159126 q 0.575367,-0.997303 0.939766,-1.591849 1.093198,-1.821997 1.879533,-2.972731 0.805514,-1.169913 2.071322,-2.531616 0.632904,-0.671262 1.495955,-1.495955 l 3.222057,-0.191789 z"
       style="font-size:31.6835556px;stroke-width:0.2;fill:#000000;fill-opacity:1;stroke:#000000;stroke-opacity:1;stroke-miterlimit:4;stroke-dasharray:none;stroke-linejoin:round;stroke-linecap:round"/>
    <path
       d="m 102.56108,25.375528 q 0,0.671262 -0.30687,1.649386 -0.49865,1.572671 -1.53431,2.569974 -1.438416,1.361702 -3.663169,1.361702 -2.320648,0 -3.50974,-1.860354 -1.05484,-1.649386 -1.05484,-4.449506 0,-3.816603 1.208271,-6.348219 1.495955,-3.126162 4.430328,-3.126162 1.89871,0 2.8193,1.246629 0.78633,1.074019 0.78633,2.876836 0,1.246629 -0.38357,2.589153 -1.01649,0.34522 -1.706927,0.537009 -0.69044,0.191789 -1.649386,0.402757 -0.958945,0.191789 -1.668565,0.306863 -0.709619,0.09589 -1.553491,0.17261 -0.05754,0.05754 -0.05754,1.035661 0,1.917891 0.556188,3.183699 0.824693,1.879533 2.723405,1.879533 1.476776,0 2.531613,-1.150735 1.05484,-1.150734 1.05484,-2.665868 0,-0.230147 -0.0192,-0.34522 z m -2.819302,-6.981122 q -0.153431,-1.342524 -0.287684,-1.630207 -0.34522,-0.786336 -1.380881,-0.786336 -1.572671,0 -2.531616,2.608332 -0.728798,1.956248 -0.728798,3.471382 0,0.0959 0,0.191789 0.01918,0.01918 0.03836,0.03836 l 2.8193,-0.460294 q 0.997303,-0.17261 1.553491,-0.997303 0.556189,-0.843872 0.556189,-1.975428 0,-0.115073 0,-0.230146 -0.03836,-0.153432 -0.03836,-0.230147 z"
       style="font-size:31.6835556px;stroke-width:0.2;fill:#000000;fill-opacity:1;stroke:#000000;stroke-opacity:1;stroke-miterlimit:4;stroke-dasharray:none;stroke-linejoin:round;stroke-linecap:round"/>
    <path
       d="m 118.60169,29.748319 q -0.70962,0 -1.20828,0.0959 -0.47947,0.09589 -1.43841,0.402757 -0.95895,0.287683 -1.99461,0.920587 l -0.46029,-0.402757 q 0.36439,-1.687744 0.38357,-1.74528 0.11508,-0.613725 0.21097,-1.227451 0.24933,-1.649386 0.38358,-3.835781 0.13425,-2.205574 0.17261,-3.720708 0.0384,-1.515134 0.0575,-2.378185 -0.0959,0.09589 -0.90141,1.035661 -0.86305,1.016482 -1.80282,2.224754 -1.16991,1.495954 -1.80282,2.4549 -1.05484,1.591849 -1.68774,3.356309 -0.42194,1.169913 -0.69044,2.608331 -0.0959,0.575367 -0.17261,1.150735 h -1.93707 l 0.7288,-13.367699 -2.47408,0.537009 v -1.208271 q 0.80551,0 1.22745,-0.03836 0.42193,-0.05754 1.11238,-0.230147 1.47677,-0.364399 2.81929,-1.265808 l -1.07401,10.068927 q 0.69044,-1.284987 1.70692,-2.857657 1.03566,-1.59185 1.78364,-2.512437 0.88223,-1.074019 1.78364,-2.167217 0.92058,-1.093197 1.97542,-2.128858 h 1.74528 l -0.72879,13.425235 2.28229,-0.34522 z"
       style="font-size:31.6835556px;stroke-width:0.2;fill:#000000;fill-opacity:1;stroke:#000000;stroke-opacity:1;stroke-miterlimit:4;stroke-dasharray:none;stroke-linejoin:round;stroke-linecap:round"/>
    <path
       d="m 138.56618,21.271242 q 0,3.50974 -1.822,6.463292 -2.10968,3.413845 -5.37009,3.413845 -1.20828,0 -2.0905,-0.364399 -0.88223,-0.364399 -1.93707,-1.189092 l 0.537,-9.397665 q 0,-3.011088 0.17261,-5.024874 0.19179,-2.013785 0.70962,-5.3125573 0.65209,-4.2193597 1.93707,-8.6305084 h 3.22206 v 0.7863352 q -0.59455,0.3452203 -0.84387,0.4986516 -0.4603,0.3068625 -0.65208,0.7479774 -0.19179,0.4411149 -0.76716,3.1453408 -0.7288,3.3946667 -1.16991,6.4632917 -0.59455,4.142644 -0.59455,7.134554 l -0.13425,7.249627 q 0,1.112377 0.88223,1.860354 0.88223,0.747978 2.07132,0.747978 1.78364,0 2.83848,-2.186396 0.92059,-1.898712 0.92059,-4.39197 0,-2.435721 -0.49866,-3.931676 -0.67126,-2.032964 -2.18639,-2.032964 -0.53701,0 -0.86305,0.07672 -0.30687,0.05754 -0.67126,0.326042 l -0.93977,0.671262 -0.53701,-0.747978 0.93977,-0.671261 q 1.38088,-0.978125 2.10968,-1.284987 0.72879,-0.306863 1.3617,-0.306863 0.61372,0 1.15073,0.326042 1.24663,0.728798 1.78364,2.301469 0.44112,1.284986 0.44112,3.260414 z"
       style="font-size:31.6835556px;stroke-width:0.2;fill:#000000;fill-opacity:1;stroke:#000000;stroke-opacity:1;stroke-miterlimit:4;stroke-dasharray:none;stroke-linejoin:round;stroke-linecap:round"/>
    <path
       d="m 149.96265,25.375528 q 0,0.671262 -0.30686,1.649386 -0.49865,1.572671 -1.53431,2.569974 -1.43842,1.361702 -3.66318,1.361702 -2.32064,0 -3.50974,-1.860354 -1.05484,-1.649386 -1.05484,-4.449506 0,-3.816603 1.20828,-6.348219 1.49595,-3.126162 4.43032,-3.126162 1.89871,0 2.8193,1.246629 0.78634,1.074019 0.78634,2.876836 0,1.246629 -0.38358,2.589153 -1.01648,0.34522 -1.70692,0.537009 -0.69044,0.191789 -1.64939,0.402757 -0.95894,0.191789 -1.66856,0.306863 -0.70962,0.09589 -1.5535,0.17261 -0.0575,0.05754 -0.0575,1.035661 0,1.917891 0.55619,3.183699 0.82469,1.879533 2.7234,1.879533 1.47678,0 2.53162,-1.150735 1.05484,-1.150734 1.05484,-2.665868 0,-0.230147 -0.0192,-0.34522 z m -2.8193,-6.981122 q -0.15343,-1.342524 -0.28768,-1.630207 -0.34522,-0.786336 -1.38088,-0.786336 -1.57267,0 -2.53162,2.608332 -0.7288,1.956248 -0.7288,3.471382 0,0.0959 0,0.191789 0.0192,0.01918 0.0384,0.03836 l 2.8193,-0.460294 q 0.9973,-0.17261 1.55349,-0.997303 0.55619,-0.843872 0.55619,-1.975428 0,-0.115073 0,-0.230146 -0.0384,-0.153432 -0.0384,-0.230147 z"
       style="font-size:31.6835556px;stroke-width:0.2;fill:#000000;fill-opacity:1;stroke:#000000;stroke-opacity:1;stroke-miterlimit:4;stroke-dasharray:none;stroke-linejoin:round;stroke-linecap:round"/>
    <path
       d="m 171.37334,15.306602 q 0,0.03836 -0.2685,1.91789 -0.17261,1.208272 -0.19179,1.438418 -0.0767,0.690441 -0.0767,1.361703 0,0.575367 0.0575,1.150734 0.0767,0.556189 0.21097,1.515134 h -1.47678 q -0.51783,1.438418 -1.11237,2.435721 -0.59455,0.997304 -1.63021,2.128859 -1.28499,1.40006 -2.49326,2.205574 -1.20827,0.805515 -3.01109,1.438419 l 0.59455,-13.233447 -3.27959,4.967337 q -0.7288,1.093198 -1.22745,2.071322 -0.49865,0.958946 -0.92059,2.10968 -0.42194,1.131556 -0.61373,2.013786 -0.19178,0.86305 -0.19178,1.937069 h -2.09051 l 0.61373,-13.770456 -2.49326,0.594547 -0.13425,-1.265808 q 0.6329,0 1.22745,-0.0959 0.0767,-0.01918 1.18909,-0.249326 1.74528,-0.364399 3.35631,-1.131555 -0.49865,2.339827 -0.51783,2.493258 -0.21097,1.208271 -0.21097,2.531616 0,0.882229 -0.0384,2.589152 -0.0383,1.687744 -0.0383,1.917891 1.43841,-2.397364 3.16452,-4.967337 0.74797,-1.150735 1.38088,-2.052143 0.65208,-0.901409 1.43842,-1.975428 h 2.01378 l -0.74798,13.425236 q 0.99731,-0.690441 1.59185,-1.265808 0.59455,-0.575368 1.28499,-1.476776 0.70962,-0.901409 1.13155,-1.668565 0.42194,-0.767156 0.8247,-1.841175 v -7.249627 z"
       style="font-size:31.6835556px;stroke-width:0.2;fill:#000000;fill-opacity:1;stroke:#000000;stroke-opacity:1;stroke-miterlimit:4;stroke-dasharray:none;stroke-linejoin:round;stroke-linecap:round"/>
    <path
       d="m 182.82195,25.375528 q 0,0.671262 -0.30686,1.649386 -0.49865,1.572671 -1.53432,2.569974 -1.43841,1.361702 -3.66317,1.361702 -2.32065,0 -3.50974,-1.860354 -1.05484,-1.649386 -1.05484,-4.449506 0,-3.816603 1.20827,-6.348219 1.49596,-3.126162 4.43033,-3.126162 1.89871,0 2.8193,1.246629 0.78634,1.074019 0.78634,2.876836 0,1.246629 -0.38358,2.589153 -1.01648,0.34522 -1.70692,0.537009 -0.69045,0.191789 -1.64939,0.402757 -0.95895,0.191789 -1.66857,0.306863 -0.70962,0.09589 -1.55349,0.17261 -0.0575,0.05754 -0.0575,1.035661 0,1.917891 0.55618,3.183699 0.8247,1.879533 2.72341,1.879533 1.47678,0 2.53162,-1.150735 1.05483,-1.150734 1.05483,-2.665868 0,-0.230147 -0.0192,-0.34522 z m -2.8193,-6.981122 q -0.15343,-1.342524 -0.28768,-1.630207 -0.34522,-0.786336 -1.38089,-0.786336 -1.57267,0 -2.53161,2.608332 -0.7288,1.956248 -0.7288,3.471382 0,0.0959 0,0.191789 0.0192,0.01918 0.0384,0.03836 l 2.8193,-0.460294 q 0.9973,-0.17261 1.55349,-0.997303 0.55619,-0.843872 0.55619,-1.975428 0,-0.115073 0,-0.230146 -0.0384,-0.153432 -0.0384,-0.230147 z"
       style="font-size:31.6835556px;stroke-width:0.2;fill:#000000;fill-opacity:1;stroke:#000000;stroke-opacity:1;stroke-miterlimit:4;stroke-dasharray:none;stroke-linejoin:round;stroke-linecap:round"/>
    <path
       d="m 195.52543,15.306602 -0.2685,9.397664 q 0,6.84687 -1.93707,10.816904 -2.03296,4.161823 -5.71531,4.161823 -1.93707,0 -2.66587,-1.284987 -0.53701,-0.939766 -0.53701,-2.953551 0,-0.632904 0.0192,-1.265808 0.0192,-0.632904 0.0384,-1.265808 l 2.14804,0.191789 q -0.15343,0.421936 -0.21097,0.767156 -0.0575,0.364399 -0.0575,0.843872 0,0.939767 0.40275,1.879533 l -1.28498,0.134252 q -0.0192,0.556189 0.21097,1.035662 0.46029,0.978124 1.87953,0.978124 1.89871,0 3.1837,-2.013786 1.0932,-1.74528 1.64938,-4.73719 0.4603,-2.512437 0.4603,-5.465988 v -2.627511 l -2.41654,4.027571 q -0.76716,1.284987 -1.9179,2.128859 -1.13155,0.843872 -2.24393,0.843872 -1.03566,-0.09589 -1.53431,-1.169914 -0.40276,-0.88223 -0.40276,-2.263111 0,-2.62751 1.4576,-5.600241 1.34252,-2.723405 3.26041,-4.641296 1.93707,-1.91789 3.33713,-1.91789 0.30687,0 0.59455,0.07672 0.30686,0.05754 0.61373,0.134253 z m -2.60833,6.175608 q 0.15343,-0.441115 0.30687,-1.323345 0.15343,-0.88223 0.15343,-1.706923 0,-0.786335 -0.17261,-1.323344 -0.15343,-0.556189 -0.55619,-0.747978 -0.15343,-0.07672 -0.40276,-0.07672 -0.97812,0 -2.24393,1.304165 -1.3617,1.400061 -2.24393,3.490562 -1.01649,2.397363 -1.01649,4.948158 0,1.150734 0.19179,1.764459 0.28769,0.920588 1.01649,0.920588 0.9973,0 2.66586,-2.646689 1.47678,-2.339827 2.30147,-4.602938 z"
       style="font-size:31.6835556px;stroke-width:0.2;fill:#000000;fill-opacity:1;stroke:#000000;stroke-opacity:1;stroke-miterlimit:4;stroke-dasharray:none;stroke-linejoin:round;stroke-linecap:round"/>
    <path
       d="m 207.07969,25.375528 q 0,0.671262 -0.30687,1.649386 -0.49865,1.572671 -1.53431,2.569974 -1.43842,1.361702 -3.66317,1.361702 -2.32065,0 -3.50974,-1.860354 -1.05484,-1.649386 -1.05484,-4.449506 0,-3.816603 1.20827,-6.348219 1.49595,-3.126162 4.43033,-3.126162 1.89871,0 2.8193,1.246629 0.78633,1.074019 0.78633,2.876836 0,1.246629 -0.38358,2.589153 -1.01648,0.34522 -1.70692,0.537009 -0.69044,0.191789 -1.64938,0.402757 -0.95895,0.191789 -1.66857,0.306863 -0.70962,0.09589 -1.55349,0.17261 -0.0575,0.05754 -0.0575,1.035661 0,1.917891 0.55619,3.183699 0.82469,1.879533 2.72341,1.879533 1.47677,0 2.53161,-1.150735 1.05484,-1.150734 1.05484,-2.665868 0,-0.230147 -0.0192,-0.34522 z m -2.8193,-6.981122 q -0.15344,-1.342524 -0.28769,-1.630207 -0.34522,-0.786336 -1.38088,-0.786336 -1.57267,0 -2.53161,2.608332 -0.7288,1.956248 -0.7288,3.471382 0,0.0959 0,0.191789 0.0192,0.01918 0.0384,0.03836 l 2.8193,-0.460294 q 0.99731,-0.17261 1.5535,-0.997303 0.55618,-0.843872 0.55618,-1.975428 0,-0.115073 0,-0.230146 -0.0384,-0.153432 -0.0384,-0.230147 z"
       style="font-size:31.6835556px;stroke-width:0.2;fill:#000000;fill-opacity:1;stroke:#000000;stroke-opacity:1;stroke-miterlimit:4;stroke-dasharray:none;stroke-linejoin:round;stroke-linecap:round"/>
    <path
       d="m 223.12029,29.748319 q -0.70962,0 -1.20828,0.0959 -0.47947,0.09589 -1.43841,0.402757 -0.95895,0.287683 -1.99461,0.920587 l -0.46029,-0.402757 q 0.3644,-1.687744 0.38357,-1.74528 0.11508,-0.613725 0.21097,-1.227451 0.24933,-1.649386 0.38358,-3.835781 0.13425,-2.205574 0.17261,-3.720708 0.0384,-1.515134 0.0575,-2.378185 -0.0959,0.09589 -0.90141,1.035661 -0.86305,1.016482 -1.80282,2.224754 -1.16991,1.495954 -1.80282,2.4549 -1.05484,1.591849 -1.68774,3.356309 -0.42194,1.169913 -0.69044,2.608331 -0.0959,0.575367 -0.17261,1.150735 h -1.93707 l 0.7288,-13.367699 -2.47408,0.537009 v -1.208271 q 0.80551,0 1.22745,-0.03836 0.42194,-0.05754 1.11238,-0.230147 1.47677,-0.364399 2.8193,-1.265808 l -1.07402,10.068927 q 0.69044,-1.284987 1.70692,-2.857657 1.03566,-1.59185 1.78364,-2.512437 0.88223,-1.074019 1.78364,-2.167217 0.92058,-1.093197 1.97542,-2.128858 h 1.74528 l -0.72879,13.425235 2.28229,-0.34522 z"
       style="font-size:31.6835556px;stroke-width:0.2;fill:#000000;fill-opacity:1;stroke:#000000;stroke-opacity:1;stroke-miterlimit:4;stroke-dasharray:none;stroke-linejoin:round;stroke-linecap:round"/>
    <path
       d="m 252.86603,29.940108 -4.08511,1.150735 1.20827,-13.962245 q -0.86305,0.863051 -2.20557,2.704226 -1.32335,1.841175 -2.16722,3.471382 -1.15073,2.243932 -1.68774,3.586456 -0.63291,1.611028 -1.1891,3.797424 h -1.74528 l 0.86305,-13.290984 q -1.3617,1.476776 -2.41654,3.011089 -0.69044,1.016482 -1.93707,3.16452 -1.01648,1.764459 -1.59185,3.433024 -0.47947,1.419239 -0.95894,3.682351 h -1.95625 l 0.74798,-13.367699 -2.14804,0.537009 v -1.208271 q 0.59454,0 0.90141,-0.03836 0.30686,-0.05754 1.11237,-0.230147 1.40006,-0.287683 2.74259,-0.939766 l -0.80552,9.742885 q 0.65209,-1.208271 1.64939,-2.838478 0.92059,-1.515134 1.64939,-2.531616 1.07401,-1.495955 1.24662,-1.726102 0.97813,-1.323344 2.16722,-2.704226 h 1.95625 l -0.61373,9.800422 q 0.11508,-0.287684 0.63291,-1.22745 1.34252,-2.512437 2.39736,-4.085107 0.92059,-1.400061 1.61103,-2.28229 0.70962,-0.901409 1.87953,-2.205575 h 2.47408 q -0.32604,1.898712 -0.6329,3.797424 -0.30686,1.879533 -0.30686,3.778245 0,1.284987 -0.0575,2.416542 -0.17261,3.394667 -0.17261,3.567277 l 0.0192,0.249326 1.28499,-0.383578 z"
       style="font-size:31.6835556px;stroke-width:0.2;fill:#000000;fill-opacity:1;stroke:#000000;stroke-opacity:1;stroke-miterlimit:4;stroke-dasharray:none;stroke-linejoin:round;stroke-linecap:round"/>
    <path
       d="m 259.92416,9.399498 q 0,0.824693 -0.57537,1.457597 -0.57536,0.632904 -1.3617,0.632904 -0.61372,0 -1.11237,-0.556188 -0.49866,-0.556189 -0.49866,-1.2658083 -0.0767,-0.8630509 0.44112,-1.5343127 0.53701,-0.6712617 1.3617,-0.6712617 0.7288,0 1.22745,0.5945461 0.51783,0.5753672 0.51783,1.3425236 z m -0.40276,5.983819 -1.13155,15.304769 -2.41654,0.537009 q 0.34522,-2.416542 0.53701,-4.085107 0.19179,-1.668565 0.19179,-3.030268 0,-1.649386 0.0575,-3.778245 0.0767,-2.128858 0.0767,-2.876836 l -2.74259,0.479473 v -1.150735 q 1.1891,-0.115073 1.34253,-0.134252 0.53701,-0.07672 1.34252,-0.326041 z"
       style="font-size:31.6835556px;stroke-width:0.2;fill:#000000;fill-opacity:1;stroke:#000000;stroke-opacity:1;stroke-miterlimit:4;stroke-dasharray:none;stroke-linejoin:round;stroke-linecap:round"/>
    <path
       d="m 270.24782,26.372831 q 0,1.495955 -0.67127,2.550795 -0.65208,1.05484 -1.87953,1.553492 -0.47947,0.210968 -0.90141,0.287683 -0.42193,0.07672 -0.90141,0.07672 -0.88223,0 -1.6302,-0.249326 -0.92059,-0.306863 -1.26581,-0.652083 v -6.904407 q 0,-1.591849 0.13425,-3.145341 0.21097,-1.91789 0.32604,-3.106983 l -2.01378,0.134253 v -1.40006 l 2.14804,0.05754 0.21096,-3.087804 2.41655,-0.537009 -0.40276,3.624813 3.35631,-0.05754 -0.0767,1.342523 -3.5481,-0.07672 q -0.0383,0.09589 -0.13425,2.205575 -0.21097,4.545401 -0.21097,6.789333 0,2.167217 0.17261,2.723405 0.30687,1.016482 1.53432,1.016482 0.88223,0 1.61102,-0.805514 0.84388,-0.939766 0.84388,-2.416542 v -0.383578 h 0.88223 z"
       style="font-size:31.6835556px;stroke-width:0.2;fill:#000000;fill-opacity:1;stroke:#000000;stroke-opacity:1;stroke-miterlimit:4;stroke-dasharray:none;stroke-linejoin:round;stroke-linecap:round"/>
    <path
       d="m 299.67049,23.898752 q -0.0575,-0.01918 -0.53701,0.03836 -0.47947,0.05754 -0.69044,0.153431 -0.49865,0.230147 -0.49865,0.958946 v 1.956248 q 0,0.460294 0.0384,0.652083 0.0384,0.191789 0.24932,0.383578 0.32604,0.268505 0.65209,0.268505 0.0575,0 0.32604,-0.03836 v 0.747978 q -1.26581,0.86305 -3.8166,1.534312 -2.5508,0.652083 -5.10159,0.652083 -4.85227,0 -8.0935,-2.838478 -3.24124,-2.838479 -3.24124,-7.230449 0,-4.468685 3.22206,-7.326342 3.22205,-2.857658 8.28529,-2.857658 2.12885,0 4.85226,0.498652 2.07132,0.383578 2.56997,0.594546 v 4.487865 h -1.20827 q 0.0192,-0.191789 0.0192,-0.306863 0,-0.767156 -0.30686,-1.419239 -0.49865,-1.074019 -1.68775,-1.668565 -1.59184,-0.805514 -4.29607,-0.805514 -3.87414,0 -6.30986,2.013785 -2.72341,2.243932 -2.72341,6.386576 0,3.835782 2.99191,6.540008 2.80012,2.531616 6.29068,2.531616 0.17262,0 0.38358,-0.01918 0.23015,-0.01918 0.34522,-0.01918 1.89872,-0.17261 2.10968,-0.210968 1.05484,-0.153431 2.03297,-0.537009 v -3.567277 q 0,-0.939767 -0.80552,-1.323345 -0.21096,-0.09589 -0.70962,-0.134252 -0.49865,-0.05754 -1.15073,-0.05754 -0.47947,0 -0.84387,0.01918 -0.3644,0 -0.65209,0.01918 v -1.208271 q 1.11238,0.134252 2.30147,0.17261 1.20827,0.03836 2.49326,0.03836 0.78634,0 1.30417,-0.03836 0.53701,-0.03836 2.20557,-0.249326 z"
       style="font-size:31.6835556px;stroke-width:0.2;fill:#000000;fill-opacity:1;stroke:#000000;stroke-opacity:1;stroke-miterlimit:4;stroke-dasharray:none;stroke-linejoin:round;stroke-linecap:round"/>
    <path
       d="m 311.28887,25.375528 q 0,0.671262 -0.30686,1.649386 -0.49866,1.572671 -1.53432,2.569974 -1.43842,1.361702 -3.66317,1.361702 -2.32065,0 -3.50974,-1.860354 -1.05484,-1.649386 -1.05484,-4.449506 0,-3.816603 1.20827,-6.348219 1.49596,-3.126162 4.43033,-3.126162 1.89871,0 2.8193,1.246629 0.78634,1.074019 0.78634,2.876836 0,1.246629 -0.38358,2.589153 -1.01649,0.34522 -1.70693,0.537009 -0.69044,0.191789 -1.64938,0.402757 -0.95895,0.191789 -1.66857,0.306863 -0.70962,0.09589 -1.55349,0.17261 -0.0575,0.05754 -0.0575,1.035661 0,1.917891 0.55619,3.183699 0.8247,1.879533 2.72341,1.879533 1.47677,0 2.53161,-1.150735 1.05484,-1.150734 1.05484,-2.665868 0,-0.230147 -0.0192,-0.34522 z m -2.8193,-6.981122 q -0.15343,-1.342524 -0.28768,-1.630207 -0.34523,-0.786336 -1.38089,-0.786336 -1.57267,0 -2.53161,2.608332 -0.7288,1.956248 -0.7288,3.471382 0,0.0959 0,0.191789 0.0192,0.01918 0.0384,0.03836 l 2.8193,-0.460294 q 0.9973,-0.17261 1.55349,-0.997303 0.55619,-0.843872 0.55619,-1.975428 0,-0.115073 0,-0.230146 -0.0384,-0.153432 -0.0384,-0.230147 z"
       style="font-size:31.6835556px;stroke-width:0.2;fill:#000000;fill-opacity:1;stroke:#000000;stroke-opacity:1;stroke-miterlimit:4;stroke-dasharray:none;stroke-linejoin:round;stroke-linecap:round"/>
    <path
       d="m 321.71006,26.008432 q 0,1.649386 -1.2658,3.145341 -1.49596,1.764459 -3.72071,1.764459 -1.4576,0 -2.85766,-0.556188 -0.46029,-0.17261 -1.0932,-0.556188 l 0.42194,-4.756369 0.95894,0.115073 -0.15343,1.802817 q 0,1.380882 0.80552,2.224754 0.80551,0.843872 2.03296,0.843872 1.24663,0 2.0905,-0.728799 0.86305,-0.747977 0.86305,-2.032964 0,-0.978124 -0.53701,-1.706923 -0.40275,-0.556188 -1.38088,-1.246629 l -1.68774,-1.22745 q -0.93977,-0.690441 -1.41924,-1.591849 -0.46029,-0.920588 -0.46029,-2.013786 0,-1.879533 1.01648,-3.030267 1.11237,-1.265808 3.16452,-1.265808 0.0384,-0.01918 0.13425,-0.01918 0.55619,0 1.16991,0.153431 0.32604,0.07672 0.65209,0.210968 v 3.33713 h -0.88223 l -0.0384,-0.843872 q 0,-0.786335 -0.38358,-1.380881 -0.38358,-0.613725 -1.07402,-0.613725 -0.76716,0 -1.32334,0.747977 -0.55619,0.728799 -0.55619,1.476776 0,0.920588 0.51783,1.726102 0.51783,0.805514 1.47677,1.495955 l 1.41924,0.997303 q 1.03566,0.70962 1.53432,1.495955 0.57536,0.901409 0.57536,2.032964 z"
       style="font-size:31.6835556px;stroke-width:0.2;fill:#000000;fill-opacity:1;stroke:#000000;stroke-opacity:1;stroke-miterlimit:4;stroke-dasharray:none;stroke-linejoin:round;stroke-linecap:round"/>
    <path
       d="m 333.06519,25.433065 q 0.19179,1.726102 -1.55349,3.759066 -1.47678,1.706923 -3.83578,1.706923 -2.33983,0 -3.47139,-1.706923 -0.93976,-1.419239 -0.93976,-3.739887 0,-3.912497 1.45759,-6.770155 1.78364,-3.490561 5.0057,-3.490561 0.82469,0 1.40006,0.17261 0.59454,0.153432 1.40006,0.556189 v 3.816602 h -1.93707 q 0,-0.05754 0.0192,-0.421936 0.0384,-0.383578 0.0384,-0.51783 0,-1.342524 -0.47948,-1.975428 -0.40275,-0.537009 -1.15073,-0.537009 -1.63021,0 -2.53162,2.589152 -0.74797,2.167217 -0.74797,5.082411 0,2.819299 0.80551,4.085107 0.69044,1.093198 1.95625,1.093198 1.55349,0 2.55079,-1.131556 1.16992,-1.323344 1.16992,-2.569973 z"
       style="font-size:31.6835556px;stroke-width:0.2;fill:#000000;fill-opacity:1;stroke:#000000;stroke-opacity:1;stroke-miterlimit:4;stroke-dasharray:none;stroke-linejoin:round;stroke-linecap:round"/>
    <path
       d="m 346.37984,20.005434 q 0,1.591849 -0.34522,2.915194 -0.23014,0.88223 -0.9973,2.80012 -0.6329,1.534313 -1.95625,3.33713 -1.01648,1.361703 -2.30147,2.761763 -0.7288,0.747978 -1.45759,1.495955 l -2.20558,2.339827 -0.88223,-1.074019 q 1.91789,-1.342524 3.08781,-2.685047 1.18909,-1.323345 2.28229,-3.433025 0.9973,-1.917891 1.59184,-4.315254 0.61373,-2.416542 0.61373,-4.257718 0,-1.57267 -0.46029,-2.301468 -0.0767,-0.134253 -0.24933,-0.134253 -0.67126,0 -2.20557,1.93707 -1.59185,2.032964 -2.85766,4.526222 -1.4576,2.896015 -1.80282,5.159126 l -0.19179,1.342524 -1.87953,0.613725 0.2685,-3.106983 q 0,-1.572671 0.0959,-3.126162 0.11507,-1.553492 0.23015,-3.260414 0.13425,-1.706923 0.13425,-3.011089 0,-3.049446 0.40275,-5.772851 0.32605,-2.186396 1.01649,-4.9481584 0.69044,-2.7617627 1.40006,-5.5235254 l 0.34522,-1.40006029 h 3.41384 V 1.8238294 q -0.74797,0.6712618 -1.47677,1.3425235 -0.86305,1.4767759 -1.40006,4.2001808 -0.53701,2.7042263 -0.76716,4.0083913 -0.40276,2.224754 -0.55619,3.797424 -0.15343,1.553492 -0.15343,3.835782 l -0.34522,5.159126 q 0.57537,-0.997303 0.93977,-1.591849 1.09319,-1.821997 1.87953,-2.972731 0.80551,-1.169913 2.07132,-2.531616 0.63291,-0.671262 1.49596,-1.495955 l 3.22205,-0.191789 z"
       style="font-size:31.6835556px;stroke-width:0.2;fill:#000000;fill-opacity:1;stroke:#000000;stroke-opacity:1;stroke-miterlimit:4;stroke-dasharray:none;stroke-linejoin:round;stroke-linecap:round"/>
    <path
       d="m 353.55154,9.399498 q 0,0.824693 -0.57537,1.457597 -0.57536,0.632904 -1.3617,0.632904 -0.61372,0 -1.11237,-0.556188 -0.49866,-0.556189 -0.49866,-1.2658083 -0.0767,-0.8630509 0.44112,-1.5343127 0.53701,-0.6712617 1.3617,-0.6712617 0.7288,0 1.22745,0.5945461 0.51783,0.5753672 0.51783,1.3425236 z m -0.40276,5.983819 -1.13155,15.304769 -2.41654,0.537009 q 0.34522,-2.416542 0.53701,-4.085107 0.19179,-1.668565 0.19179,-3.030268 0,-1.649386 0.0575,-3.778245 0.0767,-2.128858 0.0767,-2.876836 l -2.74259,0.479473 v -1.150735 q 1.1891,-0.115073 1.34253,-0.134252 0.53701,-0.07672 1.34252,-0.326041 z"
       style="font-size:31.6835556px;stroke-width:0.2;fill:#000000;fill-opacity:1;stroke:#000000;stroke-opacity:1;stroke-miterlimit:4;stroke-dasharray:none;stroke-linejoin:round;stroke-linecap:round"/>
    <path
       d="m 364.8725,25.433065 q 0.19179,1.726102 -1.55349,3.759066 -1.47678,1.706923 -3.83578,1.706923 -2.33983,0 -3.47139,-1.706923 -0.93976,-1.419239 -0.93976,-3.739887 0,-3.912497 1.4576,-6.770155 1.78363,-3.490561 5.00569,-3.490561 0.82469,0 1.40006,0.17261 0.59455,0.153432 1.40006,0.556189 v 3.816602 h -1.93707 q 0,-0.05754 0.0192,-0.421936 0.0384,-0.383578 0.0384,-0.51783 0,-1.342524 -0.47947,-1.975428 -0.40276,-0.537009 -1.15074,-0.537009 -1.63021,0 -2.53162,2.589152 -0.74797,2.167217 -0.74797,5.082411 0,2.819299 0.80551,4.085107 0.69044,1.093198 1.95625,1.093198 1.55349,0 2.55079,-1.131556 1.16992,-1.323344 1.16992,-2.569973 z"
       style="font-size:31.6835556px;stroke-width:0.2;fill:#000000;fill-opacity:1;stroke:#000000;stroke-opacity:1;stroke-miterlimit:4;stroke-dasharray:none;stroke-linejoin:round;stroke-linecap:round"/>
    <path
       d="m 378.18716,20.005434 q 0,1.591849 -0.34522,2.915194 -0.23015,0.88223 -0.99731,2.80012 -0.6329,1.534313 -1.95625,3.33713 -1.01648,1.361703 -2.30147,2.761763 -0.72879,0.747978 -1.45759,1.495955 l -2.20558,2.339827 -0.88223,-1.074019 q 1.91789,-1.342524 3.08781,-2.685047 1.18909,-1.323345 2.28229,-3.433025 0.9973,-1.917891 1.59185,-4.315254 0.61372,-2.416542 0.61372,-4.257718 0,-1.57267 -0.46029,-2.301468 -0.0767,-0.134253 -0.24933,-0.134253 -0.67126,0 -2.20557,1.93707 -1.59185,2.032964 -2.85766,4.526222 -1.4576,2.896015 -1.80282,5.159126 l -0.19179,1.342524 -1.87953,0.613725 0.26851,-3.106983 q 0,-1.572671 0.0959,-3.126162 0.11507,-1.553492 0.23015,-3.260414 0.13425,-1.706923 0.13425,-3.011089 0,-3.049446 0.40276,-5.772851 0.32604,-2.186396 1.01648,-4.9481584 0.69044,-2.7617627 1.40006,-5.5235254 l 0.34522,-1.40006029 h 3.41385 V 1.8238294 q -0.74798,0.6712618 -1.47678,1.3425235 -0.86305,1.4767759 -1.40006,4.2001808 -0.53701,2.7042263 -0.76716,4.0083913 -0.40275,2.224754 -0.55619,3.797424 -0.15343,1.553492 -0.15343,3.835782 l -0.34522,5.159126 q 0.57537,-0.997303 0.93977,-1.591849 1.0932,-1.821997 1.87953,-2.972731 0.80552,-1.169913 2.07132,-2.531616 0.63291,-0.671262 1.49596,-1.495955 l 3.22206,-0.191789 z"
       style="font-size:31.6835556px;stroke-width:0.2;fill:#000000;fill-opacity:1;stroke:#000000;stroke-opacity:1;stroke-miterlimit:4;stroke-dasharray:none;stroke-linejoin:round;stroke-linecap:round"/>
    <path
       d="m 388.50419,26.372831 q 0,1.495955 -0.67126,2.550795 -0.65208,1.05484 -1.87953,1.553492 -0.47947,0.210968 -0.90141,0.287683 -0.42193,0.07672 -0.90141,0.07672 -0.88223,0 -1.6302,-0.249326 -0.92059,-0.306863 -1.26581,-0.652083 v -6.904407 q 0,-1.591849 0.13425,-3.145341 0.21097,-1.91789 0.32604,-3.106983 l -2.01378,0.134253 v -1.40006 l 2.14803,0.05754 0.21097,-3.087804 2.41654,-0.537009 -0.40275,3.624813 3.35631,-0.05754 -0.0767,1.342523 -3.5481,-0.07672 q -0.0384,0.09589 -0.13425,2.205575 -0.21097,4.545401 -0.21097,6.789333 0,2.167217 0.17261,2.723405 0.30686,1.016482 1.53431,1.016482 0.88223,0 1.61103,-0.805514 0.84388,-0.939766 0.84388,-2.416542 v -0.383578 h 0.88222 z"
       style="font-size:31.6835556px;stroke-width:0.2;fill:#000000;fill-opacity:1;stroke:#000000;stroke-opacity:1;stroke-miterlimit:4;stroke-dasharray:none;stroke-linejoin:round;stroke-linecap:round"/>
    <path
       d="m 399.71816,25.375528 q 0,0.671262 -0.30686,1.649386 -0.49866,1.572671 -1.53432,2.569974 -1.43841,1.361702 -3.66317,1.361702 -2.32065,0 -3.50974,-1.860354 -1.05484,-1.649386 -1.05484,-4.449506 0,-3.816603 1.20827,-6.348219 1.49596,-3.126162 4.43033,-3.126162 1.89871,0 2.8193,1.246629 0.78634,1.074019 0.78634,2.876836 0,1.246629 -0.38358,2.589153 -1.01648,0.34522 -1.70693,0.537009 -0.69044,0.191789 -1.64938,0.402757 -0.95895,0.191789 -1.66857,0.306863 -0.70962,0.09589 -1.55349,0.17261 -0.0575,0.05754 -0.0575,1.035661 0,1.917891 0.55618,3.183699 0.8247,1.879533 2.72341,1.879533 1.47677,0 2.53161,-1.150735 1.05484,-1.150734 1.05484,-2.665868 0,-0.230147 -0.0192,-0.34522 z m -2.8193,-6.981122 q -0.15343,-1.342524 -0.28768,-1.630207 -0.34522,-0.786336 -1.38089,-0.786336 -1.57267,0 -2.53161,2.608332 -0.7288,1.956248 -0.7288,3.471382 0,0.0959 0,0.191789 0.0192,0.01918 0.0384,0.03836 l 2.8193,-0.460294 q 0.9973,-0.17261 1.55349,-0.997303 0.55619,-0.843872 0.55619,-1.975428 0,-0.115073 0,-0.230146 -0.0384,-0.153432 -0.0384,-0.230147 z"
       style="font-size:31.6835556px;stroke-width:0.2;fill:#000000;fill-opacity:1;stroke:#000000;stroke-opacity:1;stroke-miterlimit:4;stroke-dasharray:none;stroke-linejoin:round;stroke-linecap:round"/>
    <path
       d="m 415.75877,29.748319 q -0.70962,0 -1.20827,0.0959 -0.47947,0.09589 -1.43841,0.402757 -0.95895,0.287683 -1.99461,0.920587 l -0.4603,-0.402757 q 0.3644,-1.687744 0.38358,-1.74528 0.11508,-0.613725 0.21097,-1.227451 0.24933,-1.649386 0.38358,-3.835781 0.13425,-2.205574 0.17261,-3.720708 0.0384,-1.515134 0.0575,-2.378185 -0.0959,0.09589 -0.90141,1.035661 -0.86305,1.016482 -1.80282,2.224754 -1.16991,1.495954 -1.80282,2.4549 -1.05484,1.591849 -1.68774,3.356309 -0.42194,1.169913 -0.69044,2.608331 -0.0959,0.575367 -0.17261,1.150735 h -1.93707 l 0.7288,-13.367699 -2.47408,0.537009 v -1.208271 q 0.80551,0 1.22745,-0.03836 0.42193,-0.05754 1.11237,-0.230147 1.47678,-0.364399 2.8193,-1.265808 l -1.07401,10.068927 q 0.69044,-1.284987 1.70692,-2.857657 1.03566,-1.59185 1.78364,-2.512437 0.88223,-1.074019 1.78363,-2.167217 0.92059,-1.093197 1.97543,-2.128858 h 1.74528 l -0.7288,13.425235 2.28229,-0.34522 z"
       style="font-size:31.6835556px;stroke-width:0.2;fill:#000000;fill-opacity:1;stroke:#000000;stroke-opacity:1;stroke-miterlimit:4;stroke-dasharray:none;stroke-linejoin:round;stroke-linecap:round"/>
  </g>
</svg>
