<?xml version="1.0" encoding="UTF-8" standalone="no"?>
<svg
   xmlns="http://www.w3.org/2000/svg"
   width="100%"
   height="100%"
   viewBox="0 0 100 100"
   preserveAspectRatio="none"
   shape-rendering="geometricPrecision">
  <path
     style="opacity:1;fill:#ffffff;stroke:none;"
     d="M 0,0 V 53 H 100 V 0 Z" />
  <path
     style="fill:#d80711;stroke:#d80711;stroke-width:2;stroke-opacity:0.5"
     d="M 72.588006,96.941917 C 67.846896,95.398892 62.23453,91.442226 50.714086,81.521031 42.690815,74.611523 39.593271,72.046251 35.34221,68.79056 30.674429,65.215716 16.345502,63.873836 12.265603,66.629479 7.6236598,69.764736 1.1841621,78.648308 0.33267379,80.213518 L 0.05079467,80.73167 V 52.349393 22.989768 L 0.40783486,22.110804 C 1.4290719,19.596771 7.6425452,11.025037 12.340774,7.7799623 16.327438,5.0263639 30.715145,6.3750036 35.229459,9.9254482 40.849578,14.345591 43.638373,16.661385 50.601334,22.690139 68.664471,38.329771 77.10264,41.962274 85.29142,37.623714 90.981693,34.608905 97.072235,28.25768 99.291471,23.024434 l 0.657734,-1.550988 v 29.726292 29.726301 l -0.883237,1.388165 C 90.524614,95.738639 82.50455,100.16931 72.588006,96.941917 Z" />
</svg>
