<?xml version="1.0" encoding="UTF-8" standalone="no"?>
<svg
   xmlns:dc="http://purl.org/dc/elements/1.1/"
   xmlns:cc="http://creativecommons.org/ns#"
   xmlns:rdf="http://www.w3.org/1999/02/22-rdf-syntax-ns#"
   xmlns:svg="http://www.w3.org/2000/svg"
   xmlns="http://www.w3.org/2000/svg"
   xmlns:sodipodi="http://sodipodi.sourceforge.net/DTD/sodipodi-0.dtd"
   xmlns:inkscape="http://www.inkscape.org/namespaces/inkscape"
   viewBox="0 0 430.35587 37.794205"
   height="37.794205"
   width="430.35587"
   version="1.1"
   id="svg875"
   sodipodi:docname="mobile_subtitle.svg"
   inkscape:version="0.92.4 5da689c313, 2019-01-14">
  <metadata
     id="metadata881">
    <rdf:RDF>
      <cc:Work
         rdf:about="">
        <dc:format>image/svg+xml</dc:format>
        <dc:type
           rdf:resource="http://purl.org/dc/dcmitype/StillImage" />
      </cc:Work>
    </rdf:RDF>
  </metadata>
  <defs
     id="defs879" />
  <sodipodi:namedview
     pagecolor="#ffffff"
     bordercolor="#666666"
     borderopacity="1"
     objecttolerance="10"
     gridtolerance="10"
     guidetolerance="10"
     inkscape:pageopacity="0"
     inkscape:pageshadow="2"
     inkscape:window-width="1366"
     inkscape:window-height="745"
     id="namedview877"
     showgrid="false"
     inkscape:snap-bbox="true"
     inkscape:bbox-paths="true"
     inkscape:bbox-nodes="true"
     inkscape:snap-bbox-edge-midpoints="true"
     inkscape:snap-bbox-midpoints="true"
     inkscape:object-paths="false"
     inkscape:snap-intersection-paths="false"
     inkscape:snap-smooth-nodes="false"
     inkscape:object-nodes="false"
     inkscape:snap-nodes="false"
     inkscape:snap-others="false"
     inkscape:snap-object-midpoints="false"
     inkscape:snap-center="false"
     inkscape:snap-page="true"
     inkscape:zoom="1.3872762"
     inkscape:cx="243.84938"
     inkscape:cy="14.334436"
     inkscape:window-x="0"
     inkscape:window-y="0"
     inkscape:window-maximized="1"
     inkscape:current-layer="text885" />
  <g
     aria-label="Neue Perspektiven. Neue Geschichten."
     style="font-style:normal;font-variant:normal;font-weight:normal;font-stretch:normal;font-size:30.65097046px;line-height:1.25;font-family:Delphin;-inkscape-font-specification:Delphin;font-variant-ligatures:normal;font-variant-caps:normal;font-variant-numeric:normal;font-feature-settings:normal;text-align:start;writing-mode:lr-tb;text-anchor:start;opacity:1;fill:#000000;fill-opacity:1;stroke:none;stroke-width:2.08983898;stroke-linecap:round;stroke-linejoin:round;stroke-miterlimit:4;stroke-dasharray:none;stroke-dashoffset:0;stroke-opacity:1;paint-order:normal"
     id="text885">
    <path
       d="M 18.071456,25.103368 17.51484,13.061915 q 0,-0.946246 -0.686492,-1.4472 -0.166985,-0.129877 -0.389631,-0.185539 -0.222647,-0.05566 -0.426739,-0.05566 -0.222646,0 -0.593724,0.03711 -0.371077,0.01855 -0.38963,0.01855 h -0.667939 l 0.01855,-1.224555 q 0.834923,0.111324 1.78117,0.166985 0.9648,0.05566 2.950063,0.05566 0.630831,0 1.05757,-0.03711 0.426738,-0.03711 1.762616,-0.2412 v 1.206001 H 20.59478 q -0.315415,0 -0.630831,0.111323 -0.296861,0.111323 -0.408185,0.2412 -0.222646,0.259754 -0.278307,0.4824 -0.03711,0.204092 -0.03711,0.593723 l -0.01855,16.568594 H 18.479641 L 4.1560638,12.950592 4.1931715,24.453983 q 0,1.113231 0.1855386,1.836832 0.2040924,0.705046 0.5009541,1.001908 0.2040924,0.185539 0.5937234,0.315416 0.389631,0.129877 0.8349235,0.129877 h 1.3173238 v 1.094677 q -1.8553856,-0.204092 -3.5252327,-0.204092 -1.2245545,0 -2.0409242,0.03711 Q 1.2431084,28.702816 -1.1257052e-8,28.832693 V 27.682354 H 1.0946775 q 0.4452926,0 0.779262,-0.129877 0.3525232,-0.129877 0.5937234,-0.500954 0.1669847,-0.2412 0.2412001,-0.872031 0.092769,-0.649385 0.092769,-1.29877 V 13.080469 q 0,-0.463846 -0.129877,-0.853477 Q 2.5604321,11.837361 2.3563397,11.633268 1.9667087,11.299299 1.3358776,11.299299 H 0.0371077 v -1.168893 q 0.64938497,0.148431 1.1503391,0.222646 0.519508,0.07422 1.1317852,0.07422 0.7421543,0 1.2616622,-0.05566 0.5380619,-0.05566 1.2616623,-0.222646 z"
       style="stroke-width:0.26666667;stroke:#000000;stroke-opacity:1;stroke-miterlimit:4;stroke-dasharray:none"
       id="path895" />
    <path
       d="m 32.079568,23.563398 0.9648,0.129877 q 0,0.649385 -0.296861,1.595632 -0.482401,1.521416 -1.484309,2.486216 -1.391539,1.317324 -3.543786,1.317324 -2.245017,0 -3.395356,-1.799724 -1.020462,-1.595632 -1.020462,-4.304495 0,-3.692217 1.168893,-6.141326 1.4472,-3.024279 4.28594,-3.024279 1.836832,0 2.727417,1.206001 0.760708,1.039016 0.760708,2.783079 0,1.206 -0.371077,2.50477 -0.983354,0.33397 -1.651293,0.519508 -0.667939,0.185539 -1.595632,0.389631 -0.927692,0.185539 -1.614185,0.296862 -0.686493,0.09277 -1.502862,0.166984 -0.05566,0.05566 -0.05566,1.001909 0,1.855385 0.538062,3.07994 0.797816,1.818278 2.634647,1.818278 1.428647,0 2.449109,-1.113232 1.020463,-1.113231 1.020463,-2.578986 0,-0.222646 -0.01855,-0.333969 z m -6.49385,-2.857294 2.727417,-0.445292 q 0.9648,-0.166985 1.502862,-0.964801 0.538062,-0.81637 0.538062,-1.911047 0,-0.111323 0,-0.222646 -0.03711,-0.148431 -0.03711,-0.222647 -0.14843,-1.29877 -0.278307,-1.577078 -0.33397,-0.760708 -1.335878,-0.760708 -1.521416,0 -2.449109,2.523325 -0.705047,1.892493 -0.705047,3.358248 0,0.09277 0,0.185538 0.01855,0.01855 0.03711,0.03711 z"
       style="stroke-width:0.26666667;stroke:#000000;stroke-opacity:1;stroke-miterlimit:4;stroke-dasharray:none"
       id="path897" />
    <path
       d="m 36.680919,14.620439 q 0.705047,-0.2412 1.168893,-0.426738 0.463846,-0.185539 1.094678,-0.556616 l 0.463846,0.389631 q -0.4824,1.744062 -0.4824,1.762616 -0.166985,0.667939 -0.2412,1.224555 -0.222647,1.521416 -0.371078,3.580894 -0.14843,2.059478 -0.204092,3.395356 -0.05566,1.317323 -0.07422,2.115139 0.797815,-0.797816 1.632739,-1.892493 0.9648,-1.261662 2.26357,-3.302587 1.05757,-1.632739 1.799724,-3.376801 0.538062,-1.261663 0.834924,-2.374894 0.111323,-0.500954 0.222646,-1.001908 h 1.948155 l -0.779262,12.802161 2.412001,-0.519508 V 27.6638 q -0.667938,0 -1.113231,0.05566 -0.445292,0.03711 -1.280216,0.2412 -0.81637,0.185538 -1.372985,0.426739 -0.556616,0.222646 -1.372986,0.7236 0.204093,-1.076124 0.352524,-2.078032 0.14843,-1.001908 0.278307,-2.170801 0.33397,-2.727417 0.352524,-2.968617 0.129877,-1.372985 0.129877,-2.987171 -0.667939,1.131785 -1.335878,2.245017 -0.4824,0.816369 -0.872031,1.391539 -1.05757,1.521416 -1.63274,2.319232 -0.872031,1.224554 -1.410093,1.911047 -0.7236,0.927693 -1.706954,2.078032 h -1.688401 l 0.779262,-13.191792 -2.263571,0.519508 v -1.113231 q 0.57517,0 0.983355,-0.05566 0.408184,-0.07422 1.484308,-0.389631 z"
       style="stroke-width:0.26666667;stroke:#000000;stroke-opacity:1;stroke-miterlimit:4;stroke-dasharray:none"
       id="path899" />
    <path
       d="m 58.370318,23.563398 0.964801,0.129877 q 0,0.649385 -0.296862,1.595632 -0.4824,1.521416 -1.484308,2.486216 -1.39154,1.317324 -3.543787,1.317324 -2.245017,0 -3.395356,-1.799724 -1.020462,-1.595632 -1.020462,-4.304495 0,-3.692217 1.168893,-6.141326 1.447201,-3.024279 4.285941,-3.024279 1.836832,0 2.727417,1.206001 0.760708,1.039016 0.760708,2.783079 0,1.206 -0.371077,2.50477 -0.983355,0.33397 -1.651293,0.519508 -0.667939,0.185539 -1.595632,0.389631 -0.927693,0.185539 -1.614186,0.296862 -0.686492,0.09277 -1.502862,0.166984 -0.05566,0.05566 -0.05566,1.001909 0,1.855385 0.538061,3.07994 0.797816,1.818278 2.634648,1.818278 1.428647,0 2.449109,-1.113232 1.020462,-1.113231 1.020462,-2.578986 0,-0.222646 -0.01855,-0.333969 z m -6.493849,-2.857294 2.727416,-0.445292 q 0.964801,-0.166985 1.502863,-0.964801 0.538062,-0.81637 0.538062,-1.911047 0,-0.111323 0,-0.222646 -0.03711,-0.148431 -0.03711,-0.222647 -0.148431,-1.29877 -0.278308,-1.577078 -0.333969,-0.760708 -1.335878,-0.760708 -1.521416,0 -2.449109,2.523325 -0.705046,1.892493 -0.705046,3.358248 0,0.09277 0,0.185538 0.01855,0.01855 0.03711,0.03711 z"
       style="stroke-width:0.26666667;stroke:#000000;stroke-opacity:1;stroke-miterlimit:4;stroke-dasharray:none"
       id="path901" />
    <path
       d="m 75.588276,20.44635 q -0.500954,0 -0.872031,-0.07421 -0.352523,-0.09277 -0.946247,-0.296862 v -1.076124 q 0.371077,0.148431 0.760708,0.204093 0.389631,0.05566 0.834924,0.05566 1.985263,0 2.783078,-1.206 0.593724,-0.909139 0.593724,-2.727417 0,-1.911047 -0.983355,-2.987171 -1.039016,-1.131785 -2.950063,-1.131785 -0.389631,0 -0.927693,0.09277 -0.538061,0.07422 -0.797815,0.129877 v 13.37733 q 0,1.039016 0.05566,1.317324 0.129877,0.630831 0.630831,1.039016 0.630831,0.4824 1.447201,0.4824 h 1.744063 v 1.150339 q -1.168893,-0.129877 -2.412002,-0.185538 -1.224554,-0.05566 -2.430555,-0.05566 -1.187447,0 -2.35634,0.09277 -1.168893,0.09277 -1.744062,0.185538 v -1.094677 h 1.317324 q 0.352523,0 0.686492,-0.166985 0.352524,-0.185539 0.538062,-0.389631 0.278308,-0.315416 0.352523,-0.81637 0.07422,-0.500954 0.07422,-1.335877 v -9.276929 q 0,-2.133693 -0.185539,-3.024278 -0.166984,-0.890585 -0.538061,-1.206001 -0.352524,-0.333969 -0.927693,-0.333969 h -1.280216 v -1.001908 q 0.946246,0.09277 1.873939,0.14843 0.927693,0.03711 1.762616,0.03711 0.259754,0 0.408185,0 1.076124,0 1.63274,-0.01855 0.556615,-0.03711 1.502862,-0.166984 0.426739,-0.05566 0.81637,-0.05566 2.078032,0 3.56234,1.372985 1.484309,1.372986 1.484309,3.321141 0,2.393447 -1.410094,3.951971 -1.521416,1.669847 -4.100402,1.669847 z"
       style="stroke-width:0.26666667;stroke:#000000;stroke-opacity:1;stroke-miterlimit:4;stroke-dasharray:none"
       id="path903" />
    <path
       d="m 91.229167,23.563398 0.9648,0.129877 q 0,0.649385 -0.296861,1.595632 -0.482401,1.521416 -1.484309,2.486216 -1.391539,1.317324 -3.543786,1.317324 -2.245017,0 -3.395356,-1.799724 -1.020462,-1.595632 -1.020462,-4.304495 0,-3.692217 1.168893,-6.141326 1.447201,-3.024279 4.285941,-3.024279 1.836831,0 2.727416,1.206001 0.760709,1.039016 0.760709,2.783079 0,1.206 -0.371078,2.50477 -0.983354,0.33397 -1.651293,0.519508 -0.667939,0.185539 -1.595631,0.389631 -0.927693,0.185539 -1.614186,0.296862 -0.686493,0.09277 -1.502862,0.166984 -0.05566,0.05566 -0.05566,1.001909 0,1.855385 0.538062,3.07994 0.797816,1.818278 2.634648,1.818278 1.428646,0 2.449109,-1.113232 1.020462,-1.113231 1.020462,-2.578986 0,-0.222646 -0.01855,-0.333969 z m -6.49385,-2.857294 2.727417,-0.445292 q 0.964801,-0.166985 1.502862,-0.964801 0.538062,-0.81637 0.538062,-1.911047 0,-0.111323 0,-0.222646 -0.03711,-0.148431 -0.03711,-0.222647 -0.14843,-1.29877 -0.278307,-1.577078 -0.33397,-0.760708 -1.335878,-0.760708 -1.521416,0 -2.449109,2.523325 -0.705047,1.892493 -0.705047,3.358248 0,0.09277 0,0.185538 0.01855,0.01855 0.03711,0.03711 z"
       style="stroke-width:0.26666667;stroke:#000000;stroke-opacity:1;stroke-miterlimit:4;stroke-dasharray:none"
       id="path905" />
    <path
       d="m 103.80868,16.754133 q -0.20409,-0.05566 -0.42674,-0.05566 -0.66794,0 -1.31732,0.57517 -1.00191,0.872031 -1.98527,3.005724 -0.742151,1.63274 -1.428644,3.803541 -0.519508,1.669847 -0.890585,3.265479 -0.296862,1.280216 -0.296862,1.484308 h -1.614185 l 0.742154,-12.820715 -3.061386,0.556616 v -1.168893 q 0.185538,0 0.333969,0 0.853478,-0.05566 2.300678,-0.408185 0.927693,-0.222646 2.11514,-0.667938 0.593723,-0.259754 0.612277,-0.259754 l -0.408185,7.69985 0.760709,-1.836832 q 0.667938,-1.651293 0.79782,-1.966709 0.42673,-1.020462 0.85347,-1.799724 0.42674,-0.779262 0.81637,-1.187446 0.46385,-0.463847 0.87203,-0.630832 0.40819,-0.185538 0.76071,-0.185538 0.44529,0.07421 0.4824,0.07421 z"
       style="stroke-width:0.26666667;stroke:#000000;stroke-opacity:1;stroke-miterlimit:4;stroke-dasharray:none"
       id="path907" />
    <path
       d="m 106.29485,25.233245 q 0,1.335878 0.77927,2.152247 0.77926,0.81637 1.9667,0.81637 1.206,0 2.02237,-0.705047 0.83493,-0.7236 0.83493,-1.966708 0,-0.946247 -0.51951,-1.651294 -0.38963,-0.538061 -1.33588,-1.206 l -1.63274,-1.187447 q -0.90914,-0.667939 -1.37298,-1.53997 -0.44529,-0.890585 -0.44529,-1.948155 0,-1.818278 0.98335,-2.931509 1.07612,-1.224555 3.06139,-1.224555 0.0371,-0.01855 0.12987,-0.01855 0.53806,0 1.13179,0.148431 0.31541,0.07422 0.63083,0.204093 v 3.228371 h -0.85348 l -0.0371,-0.81637 q 0,-0.760708 -0.37107,-1.335878 -0.37108,-0.593723 -1.03902,-0.593723 -0.74215,0 -1.28022,0.7236 -0.53806,0.705047 -0.53806,1.428647 0,0.890585 0.50096,1.669847 0.50095,0.779262 1.42864,1.447201 l 1.37299,0.964801 q 1.00191,0.686492 1.48431,1.4472 0.55661,0.872032 0.55661,1.966709 0,1.595632 -1.22455,3.042833 -1.4472,1.706954 -3.59945,1.706954 -1.41009,0 -2.76452,-0.538061 -0.4453,-0.166985 -1.05757,-0.538062 l 0.40818,-4.601357 0.92769,0.111324 z"
       style="stroke-width:0.26666667;stroke:#000000;stroke-opacity:1;stroke-miterlimit:4;stroke-dasharray:none"
       id="path909" />
    <path
       d="m 117.50138,15.770778 -2.59754,0.593724 v -1.372986 q 0.85347,0 1.15033,-0.03711 0.74216,-0.148431 1.42865,-0.278308 0.70505,-0.129877 1.61419,-0.445293 0.42674,-0.166984 0.87203,-0.333969 -0.0742,0.575169 -0.12988,0.927693 -0.38963,2.523324 -0.46385,3.228371 -0.12987,1.372985 -0.12987,2.690309 0,0.705046 0.0186,1.206 0.0371,0.482401 0.0557,0.779262 -0.16698,-0.09277 0.81637,-2.356339 1.11323,-2.560432 2.46767,-4.285941 1.81827,-2.319232 3.59944,-2.319232 0.9277,0 1.26167,0.742154 0.22264,0.500954 0.22264,1.521416 v 3.451018 q 0,2.245016 -0.7236,4.415817 -0.70504,2.170802 -1.66985,3.117048 -1.05756,1.020462 -1.85538,1.465755 -0.79782,0.426739 -2.11514,0.742154 l -0.12988,-0.7236 q 0.37108,-0.05566 0.74216,-0.111323 0.57517,-0.129877 1.07612,-0.538062 1.13179,-0.872032 1.76262,-3.209817 0.57517,-2.11514 0.57517,-4.71268 v -3.432463 q 0,-0.408185 -0.12988,-0.686493 -0.12988,-0.278308 -0.44529,-0.352523 -0.46385,-0.111323 -1.52142,1.29877 -1.15034,1.521416 -2.13369,3.618002 -1.1689,2.467663 -1.66985,4.824002 -0.50095,2.337786 -0.85348,4.323049 -0.46384,2.690309 -0.70504,5.10231 l -0.25976,2.59754 -1.63274,0.57517 q 0.2412,-1.243109 0.33397,-1.799724 0.18554,-1.020462 0.18554,-1.836832 0.27831,-3.135602 0.42674,-5.67748 0.16698,-2.560432 0.16698,-5.362065 z"
       style="stroke-width:0.26666667;stroke:#000000;stroke-opacity:1;stroke-miterlimit:4;stroke-dasharray:none"
       id="path911" />
    <path
       d="m 137.89203,23.563398 0.9648,0.129877 q 0,0.649385 -0.29686,1.595632 -0.4824,1.521416 -1.48431,2.486216 -1.39154,1.317324 -3.54378,1.317324 -2.24502,0 -3.39536,-1.799724 -1.02046,-1.595632 -1.02046,-4.304495 0,-3.692217 1.16889,-6.141326 1.4472,-3.024279 4.28594,-3.024279 1.83683,0 2.72742,1.206001 0.76071,1.039016 0.76071,2.783079 0,1.206 -0.37108,2.50477 -0.98336,0.33397 -1.65129,0.519508 -0.66794,0.185539 -1.59564,0.389631 -0.92769,0.185539 -1.61418,0.296862 -0.68649,0.09277 -1.50286,0.166984 -0.0557,0.05566 -0.0557,1.001909 0,1.855385 0.53807,3.07994 0.79781,1.818278 2.63464,1.818278 1.42865,0 2.44911,-1.113232 1.02047,-1.113231 1.02047,-2.578986 0,-0.222646 -0.0186,-0.333969 z m -6.49385,-2.857294 2.72742,-0.445292 q 0.9648,-0.166985 1.50286,-0.964801 0.53806,-0.81637 0.53806,-1.911047 0,-0.111323 0,-0.222646 -0.0371,-0.148431 -0.0371,-0.222647 -0.14844,-1.29877 -0.27831,-1.577078 -0.33397,-0.760708 -1.33588,-0.760708 -1.52142,0 -2.44911,2.523325 -0.70505,1.892493 -0.70505,3.358248 0,0.09277 0,0.185538 0.0186,0.01855 0.0371,0.03711 z"
       style="stroke-width:0.26666667;stroke:#000000;stroke-opacity:1;stroke-miterlimit:4;stroke-dasharray:none"
       id="path913" />
    <path
       d="m 141.88111,28.832693 h -1.8925 l 0.25976,-2.59754 q 0.18554,-1.929601 0.29686,-4.582802 0.11132,-2.653202 0.20409,-4.898218 0.11133,-2.245017 0.27831,-3.451018 0.57517,-3.9705248 1.18745,-6.5680646 0.61227,-2.5975399 1.87394,-6.47529586 h 3.17271 V 1.1688935 q -0.22265,0 -0.42674,0.1484308 -0.53806,0.389631 -1.07613,1.4843085 -0.7607,1.5399701 -1.41009,4.267387 -0.42674,1.7626163 -0.85348,4.4900332 -0.33397,2.096586 -0.55661,3.989079 -0.22265,1.892493 -0.22265,2.245017 l -0.0557,2.078032 q 0.42674,-0.742155 0.85348,-1.502863 1.07612,-1.706955 2.24501,-2.820186 1.59564,-1.521416 3.06139,-1.521416 1.26166,0 1.91105,0.890585 0.55661,0.760708 0.55661,1.836832 0,1.744062 -1.26166,3.098494 -0.89058,0.946246 -2.39345,1.651293 -1.16889,0.538062 -1.33587,0.500954 0.61227,1.484309 1.11323,2.467663 0.50095,0.983354 1.35443,2.412001 0.94624,1.577078 1.76261,2.708863 0.81637,1.150339 2.00382,2.560432 l -1.24311,0.445293 q -1.35443,-1.614186 -2.22646,-2.708863 -0.9648,-1.224555 -2.13369,-2.820186 -1.15034,-1.614186 -1.83684,-2.59754 -0.66793,-0.983354 -1.7255,-2.653202 0.37107,0 1.18744,-0.185538 1.05757,-0.2412 1.74407,-0.630831 1.02046,-0.57517 1.61418,-1.261662 0.98336,-1.113232 0.98336,-2.541879 0,-0.853477 -0.24121,-1.243108 -0.2412,-0.408185 -0.68649,-0.408185 -0.89058,0 -2.18935,1.428647 -1.29877,1.410093 -2.33779,3.543787 -0.63083,1.298769 -1.03901,3.432463 -0.31542,1.614185 -0.4453,3.191263 -0.11132,1.577078 -0.0742,1.688401 z"
       style="stroke-width:0.26666667;stroke:#000000;stroke-opacity:1;stroke-miterlimit:4;stroke-dasharray:none"
       id="path915" />
    <path
       d="m 154.79459,15.381147 -1.94816,0.129877 v -1.354431 l 2.07803,0.05566 0.2041,-2.98717 2.33778,-0.519508 -0.38963,3.506678 3.24693,-0.05566 -0.0742,1.29877 -3.43246,-0.07422 q -0.0371,0.09277 -0.12988,2.133694 -0.20409,4.397264 -0.20409,6.568065 0,2.096586 0.16698,2.634647 0.29686,0.983355 1.48431,0.983355 0.85348,0 1.55852,-0.779262 0.81637,-0.909139 0.81637,-2.337786 v -0.371077 h 0.85348 v 0.445292 q 0,1.447201 -0.64938,2.467663 -0.63083,1.020462 -1.81828,1.502863 -0.46385,0.204092 -0.87203,0.278308 -0.40819,0.07422 -0.87203,0.07422 -0.85348,0 -1.57708,-0.2412 -0.89059,-0.296862 -1.22456,-0.630831 v -6.679389 q 0,-1.53997 0.12988,-3.042832 0.20409,-1.855386 0.31542,-3.005725 z"
       style="stroke-width:0.26666667;stroke:#000000;stroke-opacity:1;stroke-miterlimit:4;stroke-dasharray:none"
       id="path917" />
    <path
       d="m 165.03629,16.030532 -2.6532,0.463847 v -1.113232 q 1.15034,-0.111323 1.29877,-0.129877 0.51951,-0.07422 1.29877,-0.315415 l 2.6532,-0.909139 -1.09468,14.805977 -2.33778,0.519508 q 0.33397,-2.337786 0.51951,-3.951971 0.18553,-1.614186 0.18553,-2.93151 0,-1.595631 0.0557,-3.655109 0.0742,-2.059478 0.0742,-2.783079 z M 164.591,8.4976667 q -0.0742,-0.8349235 0.42674,-1.4843085 0.51951,-0.649385 1.31732,-0.649385 0.70505,0 1.18745,0.5751696 0.50095,0.5566157 0.50095,1.2987699 0,0.7978158 -0.55661,1.4100931 -0.55662,0.6122772 -1.31733,0.6122772 -0.59372,0 -1.07612,-0.5380618 -0.4824,-0.5380618 -0.4824,-1.2245545 z"
       style="stroke-width:0.26666667;stroke:#000000;stroke-opacity:1;stroke-miterlimit:4;stroke-dasharray:none"
       id="path919" />
    <path
       d="m 170.43545,19.537211 h -1.03901 l 0.12987,-5.510495 q 1.35444,0.148431 2.18936,0.204092 0.83492,0.05566 2.15225,0.05566 2.37489,0 4.61991,-0.259754 l 0.18554,0.705046 q -1.35444,0.463847 -2.8573,3.284033 -1.61418,3.042832 -1.61418,5.807357 0,1.465755 0.5195,2.374894 0.6865,1.206 2.20791,1.206 2.59754,0 4.34161,-2.634647 1.63274,-2.467663 1.63274,-5.621819 v -5.120864 h 2.78307 q -0.29686,0.797816 -0.42674,1.410093 -0.12987,0.612277 -0.22264,1.632739 -0.0186,0.222647 -0.0371,0.389631 0,0.148431 0,0.2412 0,0.760708 0.16699,1.521417 0.16698,0.760708 0.5195,1.6884 -0.14843,0.03711 -0.40818,0.03711 -0.25976,0 -0.46385,-0.03711 -0.18554,-0.03711 -0.31541,-0.09277 -0.12988,-0.07421 -0.37108,-0.2412 0,0.834924 -0.98335,2.912956 -0.74216,1.577077 -1.74407,2.541878 -1.48431,1.465754 -3.35825,2.207909 -1.4843,0.593723 -2.74597,0.593723 h -2.39344 q -0.55662,-0.9648 -0.76071,-1.372985 -0.53806,-1.131785 -0.53806,-2.59754 0,-1.688401 1.02046,-3.970525 0.76071,-1.706955 1.91105,-3.432464 0.90913,-1.372985 1.09467,-1.484308 h -5.19508 z"
       style="stroke-width:0.26666667;stroke:#000000;stroke-opacity:1;stroke-miterlimit:4;stroke-dasharray:none"
       id="path921" />
    <path
       d="m 195.77996,23.563398 0.9648,0.129877 q 0,0.649385 -0.29687,1.595632 -0.4824,1.521416 -1.4843,2.486216 -1.39154,1.317324 -3.54379,1.317324 -2.24502,0 -3.39536,-1.799724 -1.02046,-1.595632 -1.02046,-4.304495 0,-3.692217 1.16889,-6.141326 1.44721,-3.024279 4.28595,-3.024279 1.83683,0 2.72741,1.206001 0.76071,1.039016 0.76071,2.783079 0,1.206 -0.37108,2.50477 -0.98335,0.33397 -1.65129,0.519508 -0.66794,0.185539 -1.59563,0.389631 -0.92769,0.185539 -1.61419,0.296862 -0.68649,0.09277 -1.50286,0.166984 -0.0557,0.05566 -0.0557,1.001909 0,1.855385 0.53806,3.07994 0.79782,1.818278 2.63465,1.818278 1.42865,0 2.44911,-1.113232 1.02046,-1.113231 1.02046,-2.578986 0,-0.222646 -0.0186,-0.333969 z m -6.49385,-2.857294 2.72741,-0.445292 q 0.9648,-0.166985 1.50287,-0.964801 0.53806,-0.81637 0.53806,-1.911047 0,-0.111323 0,-0.222646 -0.0371,-0.148431 -0.0371,-0.222647 -0.14843,-1.29877 -0.27831,-1.577078 -0.33397,-0.760708 -1.33588,-0.760708 -1.52141,0 -2.44911,2.523325 -0.70504,1.892493 -0.70504,3.358248 0,0.09277 0,0.185538 0.0186,0.01855 0.0371,0.03711 z"
       style="stroke-width:0.26666667;stroke:#000000;stroke-opacity:1;stroke-miterlimit:4;stroke-dasharray:none"
       id="path923" />
    <path
       d="m 209.76956,28.368847 q -1.02046,0.315415 -2.02237,0.927693 l -0.44529,-0.389631 q 0.35252,-1.63274 0.37107,-1.688401 0.11133,-0.593724 0.2041,-1.187447 0.2412,-1.595632 0.37107,-3.710771 0.12988,-2.133694 0.16699,-3.599449 0.0371,-1.465754 0.0557,-2.300678 -0.0928,0.09277 -0.87203,1.001909 -0.83492,0.983354 -1.74406,2.152247 -1.13179,1.447201 -1.74407,2.374893 -1.02046,1.539971 -1.63274,3.246925 -0.40818,1.131786 -0.66793,2.523325 -0.0928,0.556615 -0.16699,1.113231 h -1.87394 l 0.70505,-12.932038 -2.39345,0.519508 V 15.25127 q 0.77926,0 1.18745,-0.03711 0.40818,-0.05566 1.07612,-0.222647 1.42865,-0.352523 2.72742,-1.224554 l -1.03902,9.740774 q 0.66794,-1.243108 1.6513,-2.764524 1.0019,-1.53997 1.7255,-2.430555 0.85348,-1.039016 1.72551,-2.096586 0.89059,-1.05757 1.91105,-2.059478 h 1.6884 l -0.70505,12.987699 2.20791,-0.333969 v 1.113231 q -0.68649,0 -1.16889,0.09277 -0.46385,0.09277 -1.29877,0.352524 z"
       style="stroke-width:0.26666667;stroke:#000000;stroke-opacity:1;stroke-miterlimit:4;stroke-dasharray:none"
       id="path925" />
    <path
       d="m 213.38751,27.199954 q 0,-0.705047 0.53806,-1.224555 0.53807,-0.519508 1.28022,-0.519508 0.66794,0 1.13178,0.556616 0.4824,0.538062 0.4824,1.261662 0,0.723601 -0.50095,1.280216 -0.4824,0.538062 -1.18745,0.538062 -0.74215,0 -1.2431,-0.556616 -0.50096,-0.556615 -0.50096,-1.335877 z"
       style="stroke-width:0.26666667;stroke:#000000;stroke-opacity:1;stroke-miterlimit:4;stroke-dasharray:none"
       id="path927" />
    <path
       d="M 243.51892,25.103368 242.9623,13.061915 q 0,-0.946246 -0.68649,-1.4472 -0.16698,-0.129877 -0.38963,-0.185539 -0.22265,-0.05566 -0.42674,-0.05566 -0.22264,0 -0.59372,0.03711 -0.37108,0.01855 -0.38963,0.01855 h -0.66794 l 0.0185,-1.224555 q 0.83493,0.111324 1.78117,0.166985 0.9648,0.05566 2.95007,0.05566 0.63083,0 1.05757,-0.03711 0.42673,-0.03711 1.76261,-0.2412 v 1.206001 h -1.33588 q -0.31541,0 -0.63083,0.111323 -0.29686,0.111323 -0.40818,0.2412 -0.22265,0.259754 -0.27831,0.4824 -0.0371,0.204092 -0.0371,0.593723 l -0.0186,16.568594 h -0.74216 l -14.32357,-16.401609 0.0371,11.503391 q 0,1.113231 0.18553,1.836832 0.2041,0.705046 0.50096,1.001908 0.20409,0.185539 0.59372,0.315416 0.38963,0.129877 0.83493,0.129877 h 1.31732 v 1.094677 q -1.85539,-0.204092 -3.52523,-0.204092 -1.22456,0 -2.04093,0.03711 -0.81637,0.03711 -2.05948,0.166985 v -1.150339 h 1.09468 q 0.44529,0 0.77926,-0.129877 0.35253,-0.129877 0.59373,-0.500954 0.16698,-0.2412 0.2412,-0.872031 0.0928,-0.649385 0.0928,-1.29877 V 13.080469 q 0,-0.463846 -0.12988,-0.853477 -0.11132,-0.389631 -0.31542,-0.593724 -0.38963,-0.333969 -1.02046,-0.333969 h -1.29877 v -1.168893 q 0.64939,0.148431 1.15034,0.222646 0.51951,0.07422 1.13179,0.07422 0.74215,0 1.26166,-0.05566 0.53806,-0.05566 1.26166,-0.222646 z"
       style="stroke-width:0.26666667;stroke:#000000;stroke-opacity:1;stroke-miterlimit:4;stroke-dasharray:none"
       id="path929" />
    <path
       d="m 257.52703,23.563398 0.9648,0.129877 q 0,0.649385 -0.29687,1.595632 -0.4824,1.521416 -1.4843,2.486216 -1.39154,1.317324 -3.54379,1.317324 -2.24502,0 -3.39536,-1.799724 -1.02046,-1.595632 -1.02046,-4.304495 0,-3.692217 1.16889,-6.141326 1.44721,-3.024279 4.28595,-3.024279 1.83683,0 2.72741,1.206001 0.76071,1.039016 0.76071,2.783079 0,1.206 -0.37108,2.50477 -0.98335,0.33397 -1.65129,0.519508 -0.66794,0.185539 -1.59563,0.389631 -0.92769,0.185539 -1.61419,0.296862 -0.68649,0.09277 -1.50286,0.166984 -0.0557,0.05566 -0.0557,1.001909 0,1.855385 0.53806,3.07994 0.79782,1.818278 2.63465,1.818278 1.42865,0 2.44911,-1.113232 1.02046,-1.113231 1.02046,-2.578986 0,-0.222646 -0.0185,-0.333969 z m -6.49385,-2.857294 2.72741,-0.445292 q 0.9648,-0.166985 1.50287,-0.964801 0.53806,-0.81637 0.53806,-1.911047 0,-0.111323 0,-0.222646 -0.0371,-0.148431 -0.0371,-0.222647 -0.14843,-1.29877 -0.27831,-1.577078 -0.33397,-0.760708 -1.33588,-0.760708 -1.52141,0 -2.4491,2.523325 -0.70505,1.892493 -0.70505,3.358248 0,0.09277 0,0.185538 0.0186,0.01855 0.0371,0.03711 z"
       style="stroke-width:0.26666667;stroke:#000000;stroke-opacity:1;stroke-miterlimit:4;stroke-dasharray:none"
       id="path931" />
    <path
       d="m 262.12838,14.620439 q 0.70505,-0.2412 1.16889,-0.426738 0.46385,-0.185539 1.09468,-0.556616 l 0.46385,0.389631 q -0.4824,1.744062 -0.4824,1.762616 -0.16699,0.667939 -0.2412,1.224555 -0.22265,1.521416 -0.37108,3.580894 -0.14843,2.059478 -0.20409,3.395356 -0.0557,1.317323 -0.0742,2.115139 0.79782,-0.797816 1.63274,-1.892493 0.9648,-1.261662 2.26357,-3.302587 1.05757,-1.632739 1.79972,-3.376801 0.53807,-1.261663 0.83493,-2.374894 0.11132,-0.500954 0.22264,-1.001908 h 1.94816 l -0.77926,12.802161 2.412,-0.519508 V 27.6638 q -0.66794,0 -1.11323,0.05566 -0.4453,0.03711 -1.28022,0.2412 -0.81637,0.185538 -1.37298,0.426739 -0.55662,0.222646 -1.37299,0.7236 0.20409,-1.076124 0.35252,-2.078032 0.14843,-1.001908 0.27831,-2.170801 0.33397,-2.727417 0.35252,-2.968617 0.12988,-1.372985 0.12988,-2.987171 -0.66794,1.131785 -1.33588,2.245017 -0.4824,0.816369 -0.87203,1.391539 -1.05757,1.521416 -1.63274,2.319232 -0.87203,1.224554 -1.41009,1.911047 -0.7236,0.927693 -1.70695,2.078032 h -1.68841 l 0.77927,-13.191792 -2.26357,0.519508 v -1.113231 q 0.57517,0 0.98335,-0.05566 0.40819,-0.07422 1.48431,-0.389631 z"
       style="stroke-width:0.26666667;stroke:#000000;stroke-opacity:1;stroke-miterlimit:4;stroke-dasharray:none"
       id="path933" />
    <path
       d="m 283.81778,23.563398 0.9648,0.129877 q 0,0.649385 -0.29686,1.595632 -0.4824,1.521416 -1.48431,2.486216 -1.39154,1.317324 -3.54378,1.317324 -2.24502,0 -3.39536,-1.799724 -1.02046,-1.595632 -1.02046,-4.304495 0,-3.692217 1.16889,-6.141326 1.4472,-3.024279 4.28594,-3.024279 1.83683,0 2.72742,1.206001 0.76071,1.039016 0.76071,2.783079 0,1.206 -0.37108,2.50477 -0.98335,0.33397 -1.65129,0.519508 -0.66794,0.185539 -1.59564,0.389631 -0.92769,0.185539 -1.61418,0.296862 -0.68649,0.09277 -1.50286,0.166984 -0.0557,0.05566 -0.0557,1.001909 0,1.855385 0.53806,3.07994 0.79781,1.818278 2.63464,1.818278 1.42865,0 2.44911,-1.113232 1.02047,-1.113231 1.02047,-2.578986 0,-0.222646 -0.0186,-0.333969 z m -6.49385,-2.857294 2.72742,-0.445292 q 0.9648,-0.166985 1.50286,-0.964801 0.53806,-0.81637 0.53806,-1.911047 0,-0.111323 0,-0.222646 -0.0371,-0.148431 -0.0371,-0.222647 -0.14843,-1.29877 -0.27831,-1.577078 -0.33397,-0.760708 -1.33588,-0.760708 -1.52142,0 -2.44911,2.523325 -0.70505,1.892493 -0.70505,3.358248 0,0.09277 0,0.185538 0.0186,0.01855 0.0371,0.03711 z"
       style="stroke-width:0.26666667;stroke:#000000;stroke-opacity:1;stroke-miterlimit:4;stroke-dasharray:none"
       id="path935" />
    <path
       d="m 304.63518,11.076653 q -3.74788,0 -6.10422,1.948155 -2.63465,2.170801 -2.63465,6.178434 0,3.710771 2.89441,6.326865 2.70886,2.449109 6.08566,2.449109 0.16699,0 0.37108,-0.01855 0.22264,-0.01855 0.33397,-0.01855 1.83683,-0.166985 2.04092,-0.204092 1.02046,-0.148431 1.96671,-0.519508 V 23.76749 q 0,-0.909139 -0.77926,-1.280216 -0.20409,-0.09277 -0.68649,-0.129877 -0.4824,-0.05566 -1.11324,-0.05566 -0.46384,0 -0.81637,0.01855 -0.35252,0 -0.63083,0.01855 V 21.16995 q 1.07613,0.129877 2.22647,0.166985 1.16889,0.03711 2.412,0.03711 0.76071,0 1.26166,-0.03711 0.51951,-0.03711 2.13369,-0.2412 v 1.168893 q -0.0557,-0.01855 -0.5195,0.03711 -0.46385,0.05566 -0.66794,0.148431 -0.4824,0.222646 -0.4824,0.927692 v 1.892494 q 0,0.445292 0.0371,0.630831 0.0371,0.185538 0.2412,0.371077 0.31542,0.259754 0.63084,0.259754 0.0557,0 0.31541,-0.03711 v 0.723601 q -1.22455,0.834923 -3.69222,1.484308 -2.46766,0.630831 -4.93532,0.630831 -4.69413,0 -7.82973,-2.745971 -3.1356,-2.74597 -3.1356,-6.994803 0,-4.323049 3.11705,-7.087573 3.11704,-2.7645249 8.01526,-2.7645249 2.05948,0 4.69413,0.4823999 2.00381,0.371077 2.48621,0.57517 v 4.341602 h -1.16889 q 0.0186,-0.185538 0.0186,-0.296861 0,-0.742155 -0.29687,-1.372986 -0.4824,-1.039016 -1.63274,-1.614185 -1.53997,-0.779262 -4.15606,-0.779262 z"
       style="stroke-width:0.26666667;stroke:#000000;stroke-opacity:1;stroke-miterlimit:4;stroke-dasharray:none"
       id="path937" />
    <path
       d="m 323.85694,23.563398 0.9648,0.129877 q 0,0.649385 -0.29686,1.595632 -0.48241,1.521416 -1.48431,2.486216 -1.39154,1.317324 -3.54379,1.317324 -2.24502,0 -3.39536,-1.799724 -1.02046,-1.595632 -1.02046,-4.304495 0,-3.692217 1.1689,-6.141326 1.4472,-3.024279 4.28594,-3.024279 1.83683,0 2.72741,1.206001 0.76071,1.039016 0.76071,2.783079 0,1.206 -0.37108,2.50477 -0.98335,0.33397 -1.65129,0.519508 -0.66794,0.185539 -1.59563,0.389631 -0.92769,0.185539 -1.61419,0.296862 -0.68649,0.09277 -1.50286,0.166984 -0.0557,0.05566 -0.0557,1.001909 0,1.855385 0.53806,3.07994 0.79782,1.818278 2.63465,1.818278 1.42865,0 2.44911,-1.113232 1.02046,-1.113231 1.02046,-2.578986 0,-0.222646 -0.0186,-0.333969 z m -6.49385,-2.857294 2.72741,-0.445292 q 0.9648,-0.166985 1.50287,-0.964801 0.53806,-0.81637 0.53806,-1.911047 0,-0.111323 0,-0.222646 -0.0371,-0.148431 -0.0371,-0.222647 -0.14843,-1.29877 -0.27831,-1.577078 -0.33397,-0.760708 -1.33588,-0.760708 -1.52141,0 -2.4491,2.523325 -0.70505,1.892493 -0.70505,3.358248 0,0.09277 0,0.185538 0.0186,0.01855 0.0371,0.03711 z"
       style="stroke-width:0.26666667;stroke:#000000;stroke-opacity:1;stroke-miterlimit:4;stroke-dasharray:none"
       id="path939" />
    <path
       d="m 327.41929,25.233245 q 0,1.335878 0.77926,2.152247 0.77926,0.81637 1.96671,0.81637 1.206,0 2.02237,-0.705047 0.83492,-0.7236 0.83492,-1.966708 0,-0.946247 -0.5195,-1.651294 -0.38964,-0.538061 -1.33588,-1.206 l -1.63274,-1.187447 q -0.90914,-0.667939 -1.37299,-1.53997 -0.44529,-0.890585 -0.44529,-1.948155 0,-1.818278 0.98335,-2.931509 1.07613,-1.224555 3.06139,-1.224555 0.0371,-0.01855 0.12988,-0.01855 0.53806,0 1.13178,0.148431 0.31542,0.07422 0.63083,0.204093 v 3.228371 h -0.85347 l -0.0371,-0.81637 q 0,-0.760708 -0.37108,-1.335878 -0.37107,-0.593723 -1.03901,-0.593723 -0.74216,0 -1.28022,0.7236 -0.53806,0.705047 -0.53806,1.428647 0,0.890585 0.50095,1.669847 0.50096,0.779262 1.42865,1.447201 l 1.37298,0.964801 q 1.00191,0.686492 1.48431,1.4472 0.55662,0.872032 0.55662,1.966709 0,1.595632 -1.22456,3.042833 -1.4472,1.706954 -3.59944,1.706954 -1.4101,0 -2.76453,-0.538061 -0.44529,-0.166985 -1.05757,-0.538062 l 0.40819,-4.601357 0.92769,0.111324 z"
       style="stroke-width:0.26666667;stroke:#000000;stroke-opacity:1;stroke-miterlimit:4;stroke-dasharray:none"
       id="path941" />
    <path
       d="m 341.94695,14.898747 q -1.57708,0 -2.44911,2.504771 -0.7236,2.096585 -0.7236,4.916772 0,2.727416 0.77926,3.951971 0.66794,1.05757 1.8925,1.05757 1.50286,0 2.46766,-1.094678 1.13179,-1.280216 1.13179,-2.486217 h 0.81636 q 0.18554,1.669848 -1.50286,3.636556 -1.42864,1.651294 -3.71077,1.651294 -2.26357,0 -3.35825,-1.651294 -0.90914,-1.372985 -0.90914,-3.618002 0,-3.784986 1.4101,-6.549511 1.72551,-3.376802 4.84255,-3.376802 0.79782,0 1.35444,0.166985 0.57516,0.148431 1.35443,0.538062 v 3.692217 h -1.87394 q 0,-0.05566 0.0186,-0.408185 0.0371,-0.371077 0.0371,-0.500954 0,-1.29877 -0.46385,-1.911047 -0.38963,-0.519508 -1.11323,-0.519508 z"
       style="stroke-width:0.26666667;stroke:#000000;stroke-opacity:1;stroke-miterlimit:4;stroke-dasharray:none"
       id="path943" />
    <path
       d="m 347.17908,26.160938 q 0,-1.521416 0.0928,-3.024279 0.11132,-1.502862 0.22264,-3.154155 0.12988,-1.651294 0.12988,-2.912956 0,-2.950063 0.38963,-5.58471 0.31542,-2.1151401 0.98336,-4.7868954 0.66793,-2.6717553 1.35443,-5.3435105 L 350.68576,5.4957503e-7 h 3.30258 V 0.9091395 q -0.7236,0.649385 -1.42864,1.2987699 -0.83493,1.428647 -1.35444,4.0632945 -0.5195,2.6160938 -0.74215,3.8777561 -0.38963,2.152247 -0.53806,3.673663 -0.14843,1.502863 -0.14843,3.710772 l -0.33397,4.990987 q 0.55661,-0.964801 0.90914,-1.53997 1.05757,-1.762616 1.81827,-2.875848 0.77927,-1.131785 2.00382,-2.449109 0.61228,-0.649385 1.4472,-1.447201 l 3.11705,-0.185538 v 4.471479 q 0,1.53997 -0.33397,2.820186 -0.22265,0.853478 -0.9648,2.708863 -0.61228,1.484309 -1.89249,3.228371 -0.98336,1.317324 -2.22647,2.671756 -0.70504,0.7236 -1.41009,1.4472 l -2.13369,2.263571 -0.85348,-1.039016 q 1.85539,-1.29877 2.98717,-2.59754 1.15034,-1.280216 2.20791,-3.32114 0.9648,-1.855386 1.53997,-4.174618 0.59372,-2.337786 0.59372,-4.118956 0,-1.521416 -0.44529,-2.226463 -0.0742,-0.129877 -0.2412,-0.129877 -0.64938,0 -2.13369,1.87394 -1.53997,1.966709 -2.76453,4.37871 -1.41009,2.801632 -1.74406,4.990987 l -0.18554,1.29877 -1.81828,0.593724 z"
       style="stroke-width:0.26666667;stroke:#000000;stroke-opacity:1;stroke-miterlimit:4;stroke-dasharray:none"
       id="path945" />
    <path
       d="m 362.67155,16.030532 -2.65321,0.463847 v -1.113232 q 1.15034,-0.111323 1.29877,-0.129877 0.51951,-0.07422 1.29877,-0.315415 l 2.65321,-0.909139 -1.09468,14.805977 -2.33779,0.519508 q 0.33397,-2.337786 0.51951,-3.951971 0.18554,-1.614186 0.18554,-2.93151 0,-1.595631 0.0557,-3.655109 0.0742,-2.059478 0.0742,-2.783079 z m -0.4453,-7.5328653 q -0.0742,-0.8349235 0.42674,-1.4843085 0.51951,-0.649385 1.31733,-0.649385 0.70504,0 1.18744,0.5751696 0.50096,0.5566157 0.50096,1.2987699 0,0.7978158 -0.55662,1.4100931 -0.55661,0.6122772 -1.31732,0.6122772 -0.59373,0 -1.07613,-0.5380618 -0.4824,-0.5380618 -0.4824,-1.2245545 z"
       style="stroke-width:0.26666667;stroke:#000000;stroke-opacity:1;stroke-miterlimit:4;stroke-dasharray:none"
       id="path947" />
    <path
       d="m 372.67205,14.898747 q -1.57708,0 -2.44911,2.504771 -0.7236,2.096585 -0.7236,4.916772 0,2.727416 0.77926,3.951971 0.66794,1.05757 1.89249,1.05757 1.50287,0 2.46767,-1.094678 1.13178,-1.280216 1.13178,-2.486217 h 0.81637 q 0.18554,1.669848 -1.50286,3.636556 -1.42865,1.651294 -3.71077,1.651294 -2.26357,0 -3.35825,-1.651294 -0.90914,-1.372985 -0.90914,-3.618002 0,-3.784986 1.41009,-6.549511 1.72551,-3.376802 4.84256,-3.376802 0.79782,0 1.35443,0.166985 0.57517,0.148431 1.35443,0.538062 v 3.692217 h -1.87394 q 0,-0.05566 0.0186,-0.408185 0.0371,-0.371077 0.0371,-0.500954 0,-1.29877 -0.46385,-1.911047 -0.38963,-0.519508 -1.11323,-0.519508 z"
       style="stroke-width:0.26666667;stroke:#000000;stroke-opacity:1;stroke-miterlimit:4;stroke-dasharray:none"
       id="path949" />
    <path
       d="m 377.90421,26.160938 q 0,-1.521416 0.0928,-3.024279 0.11133,-1.502862 0.22265,-3.154155 0.12988,-1.651294 0.12988,-2.912956 0,-2.950063 0.38963,-5.58471 0.31541,-2.1151401 0.98335,-4.7868954 0.66794,-2.6717553 1.35443,-5.3435105 L 381.41088,5.4957503e-7 h 3.30259 V 0.9091395 q -0.7236,0.649385 -1.42865,1.2987699 -0.83492,1.428647 -1.35443,4.0632945 -0.51951,2.6160938 -0.74215,3.8777561 -0.38963,2.152247 -0.53806,3.673663 -0.14843,1.502863 -0.14843,3.710772 l -0.33397,4.990987 q 0.55661,-0.964801 0.90913,-1.53997 1.05757,-1.762616 1.81828,-2.875848 0.77926,-1.131785 2.00382,-2.449109 0.61228,-0.649385 1.4472,-1.447201 l 3.11705,-0.185538 v 4.471479 q 0,1.53997 -0.33397,2.820186 -0.22265,0.853478 -0.9648,2.708863 -0.61228,1.484309 -1.8925,3.228371 -0.98335,1.317324 -2.22646,2.671756 -0.70504,0.7236 -1.41009,1.4472 l -2.13369,2.263571 -0.85348,-1.039016 q 1.85538,-1.29877 2.98717,-2.59754 1.15034,-1.280216 2.20791,-3.32114 0.9648,-1.855386 1.53997,-4.174618 0.59372,-2.337786 0.59372,-4.118956 0,-1.521416 -0.44529,-2.226463 -0.0742,-0.129877 -0.2412,-0.129877 -0.64939,0 -2.1337,1.87394 -1.53997,1.966709 -2.76452,4.37871 -1.41009,2.801632 -1.74406,4.990987 l -0.18554,1.29877 -1.81828,0.593724 z"
       style="stroke-width:0.26666667;stroke:#000000;stroke-opacity:1;stroke-miterlimit:4;stroke-dasharray:none"
       id="path951" />
    <path
       d="m 392.85858,15.381147 -1.94815,0.129877 v -1.354431 l 2.07803,0.05566 0.20409,-2.98717 2.33779,-0.519508 -0.38963,3.506678 3.24692,-0.05566 -0.0742,1.29877 -3.43247,-0.07422 q -0.0371,0.09277 -0.12988,2.133694 -0.20409,4.397264 -0.20409,6.568065 0,2.096586 0.16699,2.634647 0.29686,0.983355 1.48431,0.983355 0.85347,0 1.55852,-0.779262 0.81637,-0.909139 0.81637,-2.337786 v -0.371077 h 0.85348 v 0.445292 q 0,1.447201 -0.64939,2.467663 -0.63083,1.020462 -1.81828,1.502863 -0.46384,0.204092 -0.87203,0.278308 -0.40818,0.07422 -0.87203,0.07422 -0.85348,0 -1.57708,-0.2412 -0.89058,-0.296862 -1.22455,-0.630831 v -6.679389 q 0,-1.53997 0.12988,-3.042832 0.20409,-1.855386 0.31541,-3.005725 z"
       style="stroke-width:0.26666667;stroke:#000000;stroke-opacity:1;stroke-miterlimit:4;stroke-dasharray:none"
       id="path953" />
    <path
       d="m 409.31583,23.563398 0.9648,0.129877 q 0,0.649385 -0.29686,1.595632 -0.4824,1.521416 -1.48431,2.486216 -1.39154,1.317324 -3.54379,1.317324 -2.24501,0 -3.39535,-1.799724 -1.02046,-1.595632 -1.02046,-4.304495 0,-3.692217 1.16889,-6.141326 1.4472,-3.024279 4.28594,-3.024279 1.83683,0 2.72742,1.206001 0.7607,1.039016 0.7607,2.783079 0,1.206 -0.37107,2.50477 -0.98336,0.33397 -1.6513,0.519508 -0.66794,0.185539 -1.59563,0.389631 -0.92769,0.185539 -1.61418,0.296862 -0.6865,0.09277 -1.50287,0.166984 -0.0557,0.05566 -0.0557,1.001909 0,1.855385 0.53806,3.07994 0.79782,1.818278 2.63465,1.818278 1.42865,0 2.44911,-1.113232 1.02046,-1.113231 1.02046,-2.578986 0,-0.222646 -0.0186,-0.333969 z m -6.49385,-2.857294 2.72742,-0.445292 q 0.9648,-0.166985 1.50286,-0.964801 0.53806,-0.81637 0.53806,-1.911047 0,-0.111323 0,-0.222646 -0.0371,-0.148431 -0.0371,-0.222647 -0.14843,-1.29877 -0.27831,-1.577078 -0.33396,-0.760708 -1.33587,-0.760708 -1.52142,0 -2.44911,2.523325 -0.70505,1.892493 -0.70505,3.358248 0,0.09277 0,0.185538 0.0186,0.01855 0.0371,0.03711 z"
       style="stroke-width:0.26666667;stroke:#000000;stroke-opacity:1;stroke-miterlimit:4;stroke-dasharray:none"
       id="path955" />
    <path
       d="m 423.30542,28.368847 q -1.02046,0.315415 -2.02237,0.927693 l -0.44529,-0.389631 q 0.35252,-1.63274 0.37107,-1.688401 0.11133,-0.593724 0.20409,-1.187447 0.24121,-1.595632 0.37108,-3.710771 0.12988,-2.133694 0.16699,-3.599449 0.0371,-1.465754 0.0557,-2.300678 -0.0928,0.09277 -0.87203,1.001909 -0.83493,0.983354 -1.74407,2.152247 -1.13178,1.447201 -1.74406,2.374893 -1.02046,1.539971 -1.63274,3.246925 -0.40818,1.131786 -0.66794,2.523325 -0.0928,0.556615 -0.16698,1.113231 h -1.87394 l 0.70505,-12.932038 -2.39345,0.519508 V 15.25127 q 0.77926,0 1.18745,-0.03711 0.40818,-0.05566 1.07612,-0.222647 1.42865,-0.352523 2.72742,-1.224554 l -1.03902,9.740774 q 0.66794,-1.243108 1.65129,-2.764524 1.00191,-1.53997 1.72551,-2.430555 0.85348,-1.039016 1.72551,-2.096586 0.89059,-1.05757 1.91105,-2.059478 h 1.6884 l -0.70505,12.987699 2.20791,-0.333969 v 1.113231 q -0.68649,0 -1.16889,0.09277 -0.46385,0.09277 -1.29877,0.352524 z"
       style="stroke-width:0.26666667;stroke:#000000;stroke-opacity:1;stroke-miterlimit:4;stroke-dasharray:none"
       id="path957" />
    <path
       d="m 426.9234,27.199954 q 0,-0.705047 0.53806,-1.224555 0.53806,-0.519508 1.28022,-0.519508 0.66794,0 1.13178,0.556616 0.4824,0.538062 0.4824,1.261662 0,0.723601 -0.50095,1.280216 -0.4824,0.538062 -1.18745,0.538062 -0.74215,0 -1.24311,-0.556616 -0.50095,-0.556615 -0.50095,-1.335877 z"
       style="stroke-width:0.26666667;stroke:#000000;stroke-opacity:1;stroke-miterlimit:4;stroke-dasharray:none"
       id="path959" />
  </g>
  <g
     style="font-style:normal;font-variant:normal;font-weight:normal;font-stretch:normal;font-size:14.66666698px;line-height:1.25;font-family:Delphin;-inkscape-font-specification:Delphin;font-variant-ligatures:normal;font-variant-caps:normal;font-variant-numeric:normal;font-feature-settings:normal;text-align:start;writing-mode:lr-tb;text-anchor:start;opacity:1;fill:#000000;fill-opacity:1;stroke:none;stroke-width:1;stroke-linecap:round;stroke-linejoin:round;stroke-miterlimit:4;stroke-dasharray:none;stroke-dashoffset:0;stroke-opacity:1;paint-order:normal"
     id="flowRoot887" />
</svg>
