<?xml version="1.0" encoding="UTF-8" standalone="no"?>
<svg
   xmlns:dc="http://purl.org/dc/elements/1.1/"
   xmlns:cc="http://creativecommons.org/ns#"
   xmlns:rdf="http://www.w3.org/1999/02/22-rdf-syntax-ns#"
   xmlns:svg="http://www.w3.org/2000/svg"
   xmlns="http://www.w3.org/2000/svg"
   xmlns:sodipodi="http://sodipodi.sourceforge.net/DTD/sodipodi-0.dtd"
   xmlns:inkscape="http://www.inkscape.org/namespaces/inkscape"
   viewBox="0 0 103.17693 103.17694"
   height="103.17693"
   width="103.17693"
   id="svg2"
   version="1.1"
   sodipodi:docname="y.svg"
   inkscape:version="0.92.4 5da689c313, 2019-01-14"
   inkscape:export-filename="/home/davidp/Repositories/Storywork/img/y.png"
   inkscape:export-xdpi="383"
   inkscape:export-ydpi="383">
  <sodipodi:namedview
     pagecolor="#ffffff"
     bordercolor="#666666"
     borderopacity="1"
     objecttolerance="10"
     gridtolerance="10"
     guidetolerance="10"
     inkscape:pageopacity="0"
     inkscape:pageshadow="2"
     inkscape:window-width="1366"
     inkscape:window-height="745"
     id="namedview8"
     showgrid="false"
     inkscape:zoom="2.8284271"
     inkscape:cx="114.93581"
     inkscape:cy="32.958564"
     inkscape:window-x="0"
     inkscape:window-y="0"
     inkscape:window-maximized="1"
     inkscape:current-layer="g1537" />
  <metadata
     id="metadata8">
    <rdf:RDF>
      <cc:Work
         rdf:about="">
        <dc:format>image/svg+xml</dc:format>
        <dc:type
           rdf:resource="http://purl.org/dc/dcmitype/StillImage" />
        <dc:title />
      </cc:Work>
    </rdf:RDF>
  </metadata>
  <defs
     id="defs6">
    <filter
       style="color-interpolation-filters:sRGB"
       inkscape:label="Clean Edges"
       id="filter988">
      <feGaussianBlur
         stdDeviation="1"
         result="blur"
         id="feGaussianBlur982" />
      <feComposite
         in="SourceGraphic"
         in2="blur"
         operator="in"
         result="composite1"
         id="feComposite984" />
      <feComposite
         in="composite1"
         in2="composite1"
         operator="in"
         result="composite2"
         id="feComposite986" />
    </filter>
    <filter
       style="color-interpolation-filters:sRGB"
       inkscape:label="Clean Edges"
       id="filter996">
      <feGaussianBlur
         stdDeviation="1"
         result="blur"
         id="feGaussianBlur990" />
      <feComposite
         in="SourceGraphic"
         in2="blur"
         operator="in"
         result="composite1"
         id="feComposite992" />
      <feComposite
         in="composite1"
         in2="composite1"
         operator="in"
         result="composite2"
         id="feComposite994" />
    </filter>
  </defs>
  <g
     id="g1537"
     transform="matrix(0.30521931,0,0,0.30521931,-178.50248,0.75974001)">
    <path
       style="fill:#d7010b;stroke:#d7010b;stroke-width:0.32763326;stroke-linejoin:round;stroke-miterlimit:4;stroke-dasharray:none;stroke-opacity:1;filter:url(#filter996)"
       d="m 727.16709,311.40929 -6.06887,-4.4413 c 5.75019,-83.35706 3.48043,-90.34762 3.48043,-90.34762 l -70.4,-87.58127 5.35255,-12.45491 c 17.75978,-11.82303 31.09139,-22.950764 46.11999,-34.374518 21.98401,29.077238 64.00179,93.680758 64.00179,93.680758 l 61.76399,-94.015963 20.10608,28.393603 -66.17368,95.9416 c 0,0 -2.95389,0.4481 8.14809,104.93235 -34.01005,-0.62408 -36.04516,-0.7589 -66.33037,0.26727 z M 762.9799,143.1524 c -5.70269,-0.79996 -10.40298,-3.2234 -15.51971,-8.00186 -4.39053,-4.10029 -9.45124,-11.49022 -11.83082,-17.27604 -7.75683,-18.860468 -8.61018,-40.090195 -2.4232,-60.287039 4.02749,-13.147443 12.61238,-24.603198 21.93709,-29.272994 3.70598,-1.855943 7.16701,-2.679251 11.29491,-2.686832 14.93488,-0.02743 27.16262,11.930133 34.03299,33.281029 0,0 3.79411,15.987759 3.81578,25.365833 0.024,10.340134 -1.31136,18.502133 -4.58176,28.006793 -5.73789,16.67584 -16.01235,28.08925 -27.47488,30.5205 -2.43463,0.51639 -6.87015,0.68451 -9.2504,0.35061 z"
       id="path1541"
       inkscape:connector-curvature="0"
       sodipodi:nodetypes="ccccccccccccccccssccscc" />
  </g>
</svg>
